<svg width="20" height="19" viewBox="0 0 20 19" fill="none" xmlns="http://www.w3.org/2000/svg">
<path fill-rule="evenodd" clip-rule="evenodd" d="M13.6014 0.898984C13.2695 0.567038 12.7313 0.567038 12.3994 0.898984C12.0674 1.23093 12.0674 1.76912 12.3994 2.10107L16.9483 6.65002H6.00039C4.44887 6.65002 2.9609 7.26636 1.86382 8.36345C0.766728 9.46054 0.150391 10.9485 0.150391 12.5C0.150391 14.0515 0.766728 15.5395 1.86382 16.6366C2.9609 17.7337 4.44887 18.35 6.00039 18.35H13.0004C13.4698 18.35 13.8504 17.9695 13.8504 17.5C13.8504 17.0306 13.4698 16.65 13.0004 16.65H6.00039C4.89974 16.65 3.84417 16.2128 3.0659 15.4345C2.28762 14.6562 1.85039 13.6007 1.85039 12.5C1.85039 11.3994 2.28762 10.3438 3.0659 9.56553C3.84417 8.78726 4.89974 8.35002 6.00039 8.35002H16.9483L12.3994 12.899C12.0674 13.2309 12.0674 13.7691 12.3994 14.1011C12.7313 14.433 13.2695 14.433 13.6014 14.1011L19.6014 8.10107C19.9334 7.76912 19.9334 7.23093 19.6014 6.89898L13.6014 0.898984Z" fill="#6E3BFF"/>
</svg>
