<svg width="72" height="90" viewBox="0 0 72 90" fill="none" xmlns="http://www.w3.org/2000/svg">
<mask id="path-1-inside-1_1_828" fill="white">
<path fill-rule="evenodd" clip-rule="evenodd" d="M41.218 8.85264C41.218 9.29449 41.1772 9.72682 41.0991 10.146C47.8815 12.3404 53.1279 18.1442 54.3862 25.4898L60.4278 60.7586L68.2968 64.3472C74.164 67.023 72.2557 75.8063 65.8072 75.8063H6.00906C-0.309902 75.8063 -2.33569 67.2975 3.30535 64.45L10.6185 60.7586L15.6659 25.9838C16.6778 19.0127 21.2805 13.3434 27.4354 10.7401C27.2682 10.1395 27.1788 9.50651 27.1788 8.85264C27.1788 4.9758 30.3215 1.83301 34.1984 1.83301C38.0752 1.83301 41.218 4.9758 41.218 8.85264ZM44.8867 78.805C44.8867 84.5003 39.9812 89.1173 33.9299 89.1173C27.8786 89.1173 22.9731 84.5003 22.9731 78.805H44.8867Z"/>
</mask>
<path fill-rule="evenodd" clip-rule="evenodd" d="M41.218 8.85264C41.218 9.29449 41.1772 9.72682 41.0991 10.146C47.8815 12.3404 53.1279 18.1442 54.3862 25.4898L60.4278 60.7586L68.2968 64.3472C74.164 67.023 72.2557 75.8063 65.8072 75.8063H6.00906C-0.309902 75.8063 -2.33569 67.2975 3.30535 64.45L10.6185 60.7586L15.6659 25.9838C16.6778 19.0127 21.2805 13.3434 27.4354 10.7401C27.2682 10.1395 27.1788 9.50651 27.1788 8.85264C27.1788 4.9758 30.3215 1.83301 34.1984 1.83301C38.0752 1.83301 41.218 4.9758 41.218 8.85264ZM44.8867 78.805C44.8867 84.5003 39.9812 89.1173 33.9299 89.1173C27.8786 89.1173 22.9731 84.5003 22.9731 78.805H44.8867Z" fill="white"/>
<path d="M41.0991 10.146L39.1329 9.77982L38.8111 11.5078L40.4834 12.0489L41.0991 10.146ZM54.3862 25.4898L56.3575 25.1521V25.1521L54.3862 25.4898ZM60.4278 60.7586L58.4566 61.0963L58.6352 62.1392L59.598 62.5783L60.4278 60.7586ZM68.2968 64.3472L67.467 66.1669L68.2968 64.3472ZM3.30535 64.45L4.20659 66.2355H4.20659L3.30535 64.45ZM10.6185 60.7586L11.5197 62.544L12.4483 62.0753L12.5977 61.0458L10.6185 60.7586ZM15.6659 25.9838L17.6452 26.2711L15.6659 25.9838ZM27.4354 10.7401L28.2145 12.5821L29.8338 11.8972L29.3621 10.2035L27.4354 10.7401ZM44.8867 78.805H46.8867V76.805H44.8867V78.805ZM22.9731 78.805V76.805H20.9731V78.805H22.9731ZM43.0653 10.5123C43.1658 9.97285 43.218 9.41794 43.218 8.85264H39.218C39.218 9.17105 39.1886 9.48078 39.1329 9.77982L43.0653 10.5123ZM56.3575 25.1521C54.9705 17.0554 49.1876 10.6609 41.7148 8.24315L40.4834 12.0489C46.5755 14.0199 51.2853 19.233 52.4149 25.8275L56.3575 25.1521ZM62.3991 60.4209L56.3575 25.1521L52.4149 25.8275L58.4566 61.0963L62.3991 60.4209ZM69.1267 62.5275L61.2577 58.9389L59.598 62.5783L67.467 66.1669L69.1267 62.5275ZM65.8072 77.8063C74.4052 77.8063 76.9497 66.0952 69.1267 62.5275L67.467 66.1669C71.3784 67.9507 70.1063 73.8063 65.8072 73.8063V77.8063ZM6.00906 77.8063H65.8072V73.8063H6.00906V77.8063ZM2.40412 62.6646C-5.11727 66.4612 -2.41622 77.8063 6.00906 77.8063V73.8063C1.79642 73.8063 0.445893 68.1337 4.20659 66.2355L2.40412 62.6646ZM9.71722 58.9731L2.40412 62.6646L4.20659 66.2355L11.5197 62.544L9.71722 58.9731ZM13.6867 25.6965L8.6392 60.4713L12.5977 61.0458L17.6452 26.2711L13.6867 25.6965ZM26.6563 8.89805C19.8762 11.7658 14.802 18.0124 13.6867 25.6965L17.6452 26.2711C18.5536 20.013 22.6847 14.921 28.2145 12.5821L26.6563 8.89805ZM25.1788 8.85264C25.1788 9.68959 25.2933 10.503 25.5087 11.2766L29.3621 10.2035C29.243 9.77597 29.1788 9.32343 29.1788 8.85264H25.1788ZM34.1984 -0.166992C29.217 -0.166992 25.1788 3.87123 25.1788 8.85264H29.1788C29.1788 6.08037 31.4261 3.83301 34.1984 3.83301V-0.166992ZM43.218 8.85264C43.218 3.87123 39.1798 -0.166992 34.1984 -0.166992V3.83301C36.9706 3.83301 39.218 6.08037 39.218 8.85264H43.218ZM33.9299 91.1173C40.9698 91.1173 46.8867 85.7174 46.8867 78.805H42.8867C42.8867 83.2832 38.9925 87.1173 33.9299 87.1173V91.1173ZM20.9731 78.805C20.9731 85.7174 26.89 91.1173 33.9299 91.1173V87.1173C28.8672 87.1173 24.9731 83.2832 24.9731 78.805H20.9731ZM44.8867 76.805H22.9731V80.805H44.8867V76.805Z" fill="black" mask="url(#path-1-inside-1_1_828)"/>
<path d="M60.0759 26.9574C61.9481 17.3825 55.7038 8.10272 46.1289 6.23047" stroke="black" stroke-width="2" stroke-linecap="round"/>
<path d="M67.8483 21.727C69.7206 12.152 63.4763 2.87225 53.9014 1" stroke="black" stroke-width="2" stroke-linecap="round"/>
</svg>
