<svg width="20" height="21" viewBox="0 0 20 21" fill="none" xmlns="http://www.w3.org/2000/svg">
<path d="M18.6839 15.9797C18.6839 16.3018 18.6149 16.6329 18.4683 16.955C18.3217 17.2771 18.132 17.5813 17.882 17.8676C17.4595 18.3508 16.9939 18.6997 16.4679 18.9234C15.9506 19.1471 15.3901 19.2634 14.7865 19.2634C13.907 19.2634 12.9672 19.0487 11.9756 18.6102C10.984 18.1718 9.99245 17.5813 9.00949 16.8387C8.01791 16.0871 7.07806 15.255 6.18132 14.3334C5.29321 13.4029 4.49132 12.4276 3.77566 11.4076C3.06862 10.3876 2.49954 9.3676 2.08566 8.35655C1.67178 7.33655 1.46484 6.36128 1.46484 5.43076C1.46484 4.82234 1.56831 4.24076 1.77525 3.70392C1.98219 3.15813 2.30984 2.65707 2.76683 2.20971C3.31867 1.64602 3.92224 1.36865 4.5603 1.36865C4.80173 1.36865 5.04316 1.42234 5.25872 1.52971C5.48291 1.63707 5.68122 1.79813 5.83643 2.03076L7.83683 4.95655C7.99204 5.18023 8.10413 5.38602 8.18173 5.58286C8.25933 5.77076 8.30245 5.95865 8.30245 6.12865C8.30245 6.34339 8.24209 6.55813 8.12137 6.76392C8.00928 6.96971 7.84546 7.18444 7.63852 7.39918L6.98321 8.10602C6.88836 8.20444 6.84525 8.32076 6.84525 8.46392C6.84525 8.5355 6.85387 8.59813 6.87112 8.66971C6.89699 8.74128 6.92285 8.79497 6.9401 8.84865C7.0953 9.14392 7.3626 9.52865 7.74199 9.99392C8.13 10.4592 8.54387 10.9334 8.99224 11.4076C9.45785 11.8818 9.90622 12.3202 10.3632 12.7229C10.8116 13.1165 11.1823 13.385 11.4755 13.546C11.5186 13.5639 11.5704 13.5908 11.6307 13.6176C11.6997 13.6444 11.7687 13.6534 11.8463 13.6534C11.9929 13.6534 12.1049 13.5997 12.1998 13.5013L12.8551 12.8302C13.0707 12.6065 13.2776 12.4365 13.4759 12.3292C13.6742 12.2039 13.8725 12.1413 14.0881 12.1413C14.2519 12.1413 14.4244 12.1771 14.6141 12.2576C14.8038 12.3381 15.0021 12.4544 15.2177 12.6065L18.0717 14.7092C18.2959 14.8702 18.4511 15.0581 18.5459 15.2818C18.6321 15.5055 18.6839 15.7292 18.6839 15.9797Z" stroke="#6E3BFF" stroke-width="1.5" stroke-miterlimit="10"/>
</svg>
