<svg width="25" height="25" viewBox="0 0 25 25" fill="none" xmlns="http://www.w3.org/2000/svg">
<g clip-path="url(#clip0_518_5745)">
<path d="M12.5007 2.08337C6.75065 2.08337 2.08398 6.75004 2.08398 12.5C2.08398 18.25 6.75065 22.9167 12.5007 22.9167C18.2507 22.9167 22.9173 18.25 22.9173 12.5C22.9173 6.75004 18.2507 2.08337 12.5007 2.08337ZM9.67773 16.9688L5.93815 13.2292C5.5319 12.823 5.5319 12.1667 5.93815 11.7605C6.3444 11.3542 7.00065 11.3542 7.4069 11.7605L10.4173 14.7605L17.584 7.59379C17.9902 7.18754 18.6465 7.18754 19.0527 7.59379C19.459 8.00004 19.459 8.65629 19.0527 9.06254L11.1465 16.9688C10.7507 17.375 10.084 17.375 9.67773 16.9688Z" fill="#161616"/>
</g>
<defs>
<clipPath id="clip0_518_5745">
<rect width="25" height="25" fill="white"/>
</clipPath>
</defs>
</svg>
