<svg width="12" height="12" viewBox="0 0 12 12" fill="none" xmlns="http://www.w3.org/2000/svg">
<path d="M8.50061 11.2019C8.65139 11.0511 8.74374 10.8416 8.74345 10.6115L8.74345 10.5102C8.74345 10.0494 8.37041 9.67639 7.9102 9.67698L3.35728 9.67698L11.059 1.97522C11.3843 1.64995 11.3843 1.12198 11.059 0.796709C10.7338 0.47144 10.2058 0.47144 9.88053 0.796709L2.17877 8.49846V3.94554C2.17877 3.48475 1.80574 3.11171 1.34553 3.1123H1.24425C0.783452 3.1123 0.410416 3.48534 0.411005 3.94554V10.6115C0.411005 11.0723 0.784041 11.4453 1.24425 11.4447L7.9102 11.4447C8.1406 11.4447 8.34983 11.3527 8.50061 11.2019Z" fill="#FF3B30"/>
</svg>
