<svg width="145" height="117" viewBox="0 0 145 117" fill="none" xmlns="http://www.w3.org/2000/svg">
<path d="M72.379 116.939C61.6923 116.939 51.0056 116.946 40.3189 116.935C31.9063 116.927 25.6027 112.071 23.2825 103.932C19.4526 90.4864 15.5613 77.056 11.7545 63.6026C11.3935 62.3231 10.6943 62.1343 9.56497 62.1266C4.71333 62.0958 1.06403 59.0513 0.222772 54.4152C-0.749093 49.0855 1.53652 44.538 6.1039 42.7191C7.18717 42.2875 8.31269 42.1179 9.47662 42.1217C13.8865 42.1333 18.2926 42.1256 22.7024 42.1217C24.7768 42.1217 24.7845 42.114 24.2313 40.1833C22.2876 33.393 20.3438 26.6027 18.3847 19.8162C18.1159 18.8798 18.0352 18.0165 18.8073 17.2843C19.9482 16.2014 21.5846 16.7448 22.1147 18.4867C23.1519 21.8857 24.1007 25.3155 25.0841 28.73C26.2403 32.7456 27.4235 36.7573 28.5336 40.7883C28.8141 41.8057 29.3134 42.141 30.3544 42.141C58.4348 42.114 86.519 42.1063 114.599 42.1372C115.763 42.1372 116.159 41.6516 116.447 40.6342C118.322 33.9749 120.246 27.331 122.155 20.6795C122.382 19.8933 122.589 19.1033 122.87 18.3364C123.346 17.0338 124.295 16.4904 125.405 16.8296C126.508 17.1648 127.011 18.1707 126.646 19.4964C125.839 22.4136 124.99 25.3194 124.153 28.229C122.962 32.3872 121.794 36.5492 120.557 40.692C120.223 41.8134 120.5 42.141 121.641 42.1295C126.243 42.0909 130.841 42.0948 135.443 42.1179C140.49 42.1449 144.262 45.6133 144.908 50.7696C145.568 56.0531 142.707 60.6198 137.901 61.8954C137.26 62.0649 136.58 62.1343 135.915 62.1497C133.292 62.2114 133.733 62.0071 133.042 64.3887C129.247 77.4954 125.374 90.5827 121.767 103.739C119.466 112.137 112.164 117.162 104.289 117.004C93.6563 116.792 83.0119 116.95 72.3751 116.95C72.379 116.942 72.379 116.939 72.379 116.939ZM72.5403 62.169C72.5403 62.1651 72.5403 62.1574 72.5403 62.1536C54.386 62.1536 36.2279 62.1536 18.0736 62.1536C17.6434 62.1536 17.2093 62.169 16.7791 62.1536C15.8072 62.115 15.4768 62.4927 15.7841 63.4754C16.3258 65.2173 16.7983 66.9823 17.3015 68.7358C20.6127 80.2778 23.8702 91.839 27.2583 103.358C28.8601 108.799 32.5901 111.975 38.21 112.865C40.7837 113.274 43.3728 113.058 45.9581 113.062C65.3109 113.081 84.6637 113.073 104.016 113.062C111.204 113.058 115.978 109.412 117.941 102.529C120.615 93.1532 123.315 83.7847 126.004 74.4124C127.038 70.813 128.044 67.202 129.127 63.618C129.473 62.4773 129.127 62.0958 128.021 62.169C127.591 62.196 127.161 62.1728 126.727 62.1728C108.661 62.169 90.5986 62.169 72.5403 62.169ZM72.4712 58.2767C72.4712 58.2728 72.4712 58.2651 72.4712 58.2613C93.0225 58.2613 113.574 58.2613 134.125 58.2613C134.651 58.2613 135.181 58.2805 135.704 58.2381C138.212 58.0378 140.298 56.3036 140.774 54.0453C141.443 50.8813 140.471 48.1066 138.208 46.8079C137.797 46.5728 137.336 46.4148 136.879 46.2838C135.904 46.0025 134.893 46.0102 133.887 46.0102C92.9264 46.0063 51.9698 46.0025 11.0093 45.9986C10.387 45.9986 9.76088 45.9986 9.14242 46.0641C6.71852 46.3185 4.86698 47.544 4.29462 49.9217C3.69537 52.4305 3.64927 55.0126 5.94641 56.9471C7.28704 58.0724 8.85432 58.2921 10.5215 58.2882C31.1765 58.2728 51.8238 58.2767 72.4712 58.2767Z" fill="#E1EBF3"/>
<path d="M72.4831 0C81.7753 0.015415 90.0343 6.48972 90.2148 17.9778C90.3608 27.4734 81.9943 35.5432 72.4754 35.5393C62.9603 35.5355 54.5708 27.4195 54.7398 17.9662C54.9472 6.24694 63.3867 0.0192688 72.4831 0ZM86.2198 17.5423C86.2313 10.0699 79.9392 3.86146 72.3678 3.87302C65.0155 3.88459 58.7502 10.1238 58.7272 17.4652C58.7003 25.3384 64.735 31.4582 72.5061 31.4389C80.2157 31.4158 86.2083 25.35 86.2198 17.5423Z" fill="#E1EBF3"/>
<path d="M74.5034 87.5999C74.5034 91.392 74.5111 95.184 74.4957 98.9761C74.4919 99.5465 74.4765 100.14 74.3228 100.683C74.0616 101.608 73.3779 102.152 72.4098 102.125C71.5148 102.098 70.8695 101.566 70.6313 100.699C70.4815 100.155 70.4546 99.5619 70.4546 98.9916C70.4431 91.4074 70.4469 83.8232 70.4469 76.239C70.4469 76.0001 70.4431 75.7573 70.4546 75.5183C70.5391 74.0115 71.3765 73.0327 72.5404 73.0751C73.6544 73.1174 74.4727 74.0578 74.488 75.5029C74.5226 79.5339 74.4995 83.5688 74.4995 87.5999H74.5034Z" fill="#E1EBF3"/>
<path d="M92.6421 76.1041C92.0928 82.9368 91.5588 89.5883 91.021 96.2361C90.9173 97.5271 90.8482 98.8219 90.683 100.105C90.5255 101.331 89.7918 102.032 88.5241 101.905C87.2949 101.782 86.7725 100.903 86.8339 99.7815C87.003 96.6677 87.2526 93.5577 87.4908 90.4477C87.8327 85.9966 88.1899 81.5494 88.5472 77.0983C88.601 76.4278 88.6624 75.7572 88.7661 75.0982C88.9621 73.8766 89.6612 73.1752 90.9365 73.3024C92.1657 73.4257 92.596 74.2928 92.6459 75.4219C92.6536 75.7148 92.6421 76.0039 92.6421 76.1041Z" fill="#E1EBF3"/>
<path d="M110.842 75.9075C110.254 79.661 109.628 83.6882 108.991 87.7154C108.349 91.7426 107.692 95.7659 107.047 99.7892C106.847 101.046 106.163 101.832 104.857 101.812C103.693 101.797 102.952 100.745 103.156 99.2998C103.716 95.3613 104.346 91.4266 104.969 87.4957C105.614 83.4223 106.256 79.3489 106.943 75.2793C107.166 73.9729 108.169 73.1944 109.237 73.418C110.404 73.6685 110.904 74.4585 110.842 75.9075Z" fill="#E1EBF3"/>
<path d="M52.3463 76.1196C52.3079 75.3566 52.208 74.5665 52.7766 73.9268C53.3067 73.3295 53.9904 73.1715 54.7395 73.3488C55.5155 73.5299 55.9342 74.0771 56.1378 74.8363C56.5526 76.3855 56.4412 77.9887 56.5834 79.561C57.1557 86.0122 57.6397 92.4749 58.1084 98.9338C58.2505 100.88 57.6551 101.797 56.4067 101.917C55.0737 102.048 54.2709 101.188 54.1134 99.2267C53.5026 91.5269 52.9341 83.8233 52.3463 76.1196Z" fill="#E1EBF3"/>
<path d="M41.8135 99.1803C41.8865 100.78 41.2373 101.678 40.1579 101.812C39.1015 101.943 38.1488 101.157 37.9299 99.8354C37.1462 95.0992 36.401 90.3552 35.6443 85.6112C35.1987 82.8134 34.7608 80.0156 34.319 77.2178C34.2575 76.8401 34.1961 76.4586 34.1577 76.077C34.0002 74.5163 34.5111 73.6684 35.7211 73.4565C36.8697 73.2561 37.7839 73.9999 38.0259 75.4604C38.725 79.6765 39.3819 83.9002 40.0503 88.12C40.6573 91.9121 41.2604 95.7081 41.8135 99.1803Z" fill="#E1EBF3"/>
<path d="M72.4748 19.708C70.0317 19.708 67.5886 19.7273 65.1455 19.7003C63.4438 19.681 62.5488 18.9527 62.5449 17.6694C62.5449 16.3899 63.44 15.6461 65.1455 15.6384C70.0317 15.6153 74.9141 15.6153 79.8003 15.6384C81.5021 15.6461 82.3971 16.3899 82.3971 17.6732C82.3971 18.9565 81.5021 19.6887 79.8003 19.7041C77.3611 19.7273 74.918 19.708 72.4748 19.708Z" fill="#E1EBF3"/>
</svg>
