<svg width="26" height="26" viewBox="0 0 26 26" fill="none" xmlns="http://www.w3.org/2000/svg">
<path d="M9.89568 22.5043V19.1918C9.89568 18.3462 10.5862 17.6607 11.438 17.6607H14.5517C14.9607 17.6607 15.353 17.822 15.6422 18.1091C15.9315 18.3962 16.094 18.7857 16.094 19.1918V22.5043C16.0914 22.8558 16.2302 23.1939 16.4797 23.4434C16.7292 23.6929 17.0687 23.8332 17.4229 23.8332H19.5472C20.5393 23.8357 21.4917 23.4462 22.1941 22.7507C22.8966 22.0552 23.2913 21.1107 23.2913 20.1258V10.6889C23.2913 9.89334 22.9361 9.13867 22.3213 8.62823L15.0949 2.8987C13.8378 1.89411 12.0367 1.92655 10.8172 2.97573L3.7556 8.62823C3.11181 9.12362 2.72702 9.88053 2.70801 10.6889V20.1162C2.70801 22.169 4.38434 23.8332 6.4522 23.8332H8.52799C9.2635 23.8332 9.86125 23.2441 9.86658 22.5139L9.89568 22.5043Z" fill="#6E3BFF"/>
</svg>
