<svg width="26" height="26" viewBox="0 0 26 26" fill="none" xmlns="http://www.w3.org/2000/svg">
<path d="M12.832 2.61924C16.2583 2.61924 16.6639 2.63213 18.0171 2.69376C19.2682 2.75056 19.9474 2.95962 20.3998 3.13484C20.9987 3.36726 21.4261 3.6444 21.8749 4.09273C22.3241 4.54106 22.6021 4.96764 22.8346 5.56542C23.0105 6.01697 23.2192 6.6949 23.2765 7.94362C23.3378 9.29426 23.3511 9.69908 23.3511 13.119C23.3511 16.5389 23.3378 16.9441 23.2765 18.2943C23.2192 19.5434 23.0101 20.2214 22.8346 20.6725C22.6017 21.2707 22.3241 21.6973 21.8749 22.1452C21.4261 22.5931 20.9983 22.8707 20.3998 23.1031C19.9474 23.2787 19.2678 23.4874 18.0171 23.5442C16.6639 23.6054 16.2583 23.6187 12.832 23.6187C9.40527 23.6187 8.99968 23.6058 7.6469 23.5442C6.39583 23.4874 5.71621 23.2787 5.26421 23.1031C4.6649 22.8707 4.23752 22.5931 3.78834 22.1452C3.33957 21.6969 3.06151 21.2703 2.82864 20.6725C2.65309 20.2214 2.44404 19.5434 2.38673 18.2947C2.32498 16.9445 2.31207 16.5393 2.31207 13.1194C2.31207 9.69949 2.32498 9.29466 2.38673 7.94403C2.44404 6.69531 2.65309 6.01737 2.82864 5.56582C3.06151 4.96804 3.33957 4.54146 3.78834 4.09313C4.23752 3.6448 4.6649 3.36767 5.26421 3.13524C5.71621 2.95962 6.39583 2.75096 7.6469 2.69416C8.99968 2.63213 9.40567 2.61924 12.832 2.61924ZM12.832 0.311523C9.34675 0.311523 8.91009 0.326428 7.54117 0.388461C6.17548 0.450897 5.24282 0.667207 4.42639 0.983819C3.58252 1.31131 2.86698 1.74916 2.15347 2.46134C1.43995 3.17351 1.00126 3.8877 0.673564 4.72998C0.356355 5.54487 0.139233 6.47577 0.0770825 7.83889C0.0149322 9.20483 0 9.64068 0 13.1194C0 16.5977 0.0149322 17.0339 0.077486 18.4002C0.139636 19.7634 0.356759 20.6943 0.673967 21.5092C1.00167 22.3514 1.44035 23.0656 2.15387 23.7778C2.86739 24.49 3.58292 24.9278 4.42679 25.2553C5.24322 25.5715 6.17548 25.7882 7.54157 25.8507C8.91049 25.9131 9.34716 25.9276 12.8324 25.9276C16.3173 25.9276 16.7539 25.9131 18.1229 25.8507C19.4885 25.7887 20.4212 25.5719 21.2376 25.2553C22.0815 24.9278 22.797 24.49 23.5106 23.7778C24.2241 23.0656 24.6628 22.3514 24.9909 21.5092C25.3077 20.6943 25.5248 19.7634 25.5873 18.4002C25.6495 17.0339 25.6644 16.5981 25.6644 13.1194C25.6644 9.64108 25.6499 9.20483 25.5873 7.83889C25.5248 6.47577 25.3077 5.54487 24.9909 4.72998C24.6628 3.8877 24.2241 3.17351 23.5106 2.46134C22.797 1.74916 22.0815 1.31131 21.2376 0.983819C20.4208 0.66761 19.4881 0.450897 18.1224 0.388461C16.7535 0.326428 16.3165 0.311523 12.832 0.311523Z" fill="black" fill-opacity="0.5"/>
<path d="M12.8317 6.54211C9.19271 6.54211 6.24219 9.48668 6.24219 13.1188C6.24219 16.751 9.19271 19.696 12.8317 19.696C16.4708 19.696 19.4209 16.7514 19.4209 13.1188C19.4209 9.48668 16.4708 6.54211 12.8317 6.54211ZM12.8317 17.3883C10.4692 17.3883 8.55426 15.4765 8.55426 13.1188C8.55426 10.7608 10.4692 8.84943 12.8317 8.84943C15.1939 8.84943 17.1088 10.7608 17.1088 13.1188C17.1088 15.4769 15.1939 17.3883 12.8317 17.3883Z" fill="black" fill-opacity="0.5"/>
<path d="M21.2207 6.28282C21.2207 7.13155 20.5314 7.81996 19.6807 7.81996C18.8299 7.81996 18.1406 7.13155 18.1406 6.28282C18.1406 5.4341 18.8299 4.74609 19.6807 4.74609C20.531 4.74569 21.2207 5.4341 21.2207 6.28282Z" fill="black" fill-opacity="0.5"/>
</svg>
