<svg width="16" height="20" viewBox="0 0 16 20" fill="none" xmlns="http://www.w3.org/2000/svg">
<path d="M15.5092 6.82384C14.6038 2.69015 11.129 0.829102 8.07664 0.829102C8.07664 0.829102 8.07664 0.829102 8.06802 0.829102C5.02429 0.829102 1.54082 2.68121 0.635464 6.81489C-0.373362 11.4317 2.35133 15.3417 4.81735 17.8023C5.73133 18.7149 6.90399 19.1712 8.07664 19.1712C9.24929 19.1712 10.4219 18.7149 11.3273 17.8023C13.7933 15.3417 16.518 11.4407 15.5092 6.82384ZM8.07664 11.3065C6.57633 11.3065 5.36057 10.0449 5.36057 8.48805C5.36057 6.93121 6.57633 5.66963 8.07664 5.66963C9.57694 5.66963 10.7927 6.93121 10.7927 8.48805C10.7927 10.0449 9.57694 11.3065 8.07664 11.3065Z" fill="#6E3BFF"/>
</svg>
