<svg width="22" height="22" viewBox="0 0 22 22" fill="none" xmlns="http://www.w3.org/2000/svg">
<path d="M18.5087 7.82384C17.6033 3.69015 14.1285 1.8291 11.0761 1.8291C11.0761 1.8291 11.0761 1.8291 11.0675 1.8291C8.0238 1.8291 4.54033 3.68121 3.63498 7.81489C2.62615 12.4317 5.35084 16.3417 7.81686 18.8023C8.73084 19.7149 9.9035 20.1712 11.0761 20.1712C12.2488 20.1712 13.4215 19.7149 14.3268 18.8023C16.7928 16.3417 19.5175 12.4407 18.5087 7.82384ZM11.0761 12.3065C9.57584 12.3065 8.36008 11.0449 8.36008 9.48805C8.36008 7.93121 9.57584 6.66963 11.0761 6.66963C12.5765 6.66963 13.7922 7.93121 13.7922 9.48805C13.7922 11.0449 12.5765 12.3065 11.0761 12.3065Z" fill="#8C8C8C"/>
</svg>
