<svg width="205" height="92" viewBox="0 0 205 92" fill="none" xmlns="http://www.w3.org/2000/svg">
<path d="M67.6659 42.4021H70.039V40.1961C70.039 38.0421 70.5328 36.4021 71.5222 35.2741C72.5097 34.146 73.8202 33.582 75.4517 33.582C76.3416 33.582 77.1076 33.7861 77.7497 34.1903V37.763C77.2296 37.4088 76.6383 37.2317 75.9699 37.2317C74.3872 37.2317 73.5968 38.2577 73.5968 40.3116V42.4021H77.7497V46.0518H73.5968V60.6487H70.0371V46.0518H67.6641V42.4021H67.6659Z" fill="#6E3BFF"/>
<path d="M82.4961 33.8867H86.0557V60.6492H82.4961V33.8867Z" fill="#6E3BFF"/>
<path d="M102.405 42.4023H106.372L94.3226 70.3833L90.4287 70.4007L95.1392 59.39L87.9824 42.4043H91.9495L97.0768 54.8606L102.405 42.4023Z" fill="#6E3BFF"/>
<path d="M121.945 42.4018H125.505V60.6483H121.945V57.988C120.462 59.965 118.483 60.9525 116.012 60.9525C113.442 60.9525 111.315 60.04 109.635 58.2152C107.952 56.3903 107.113 54.1612 107.113 51.5241C107.113 48.8888 107.952 46.6578 109.635 44.833C111.315 43.0081 113.44 42.0957 116.012 42.0957C118.483 42.0957 120.462 43.0832 121.945 45.0601V42.4018ZM112.323 55.6107C113.423 56.7388 114.753 57.3028 116.309 57.3028C117.865 57.3028 119.195 56.7388 120.295 55.6107C121.395 54.4827 121.945 53.1199 121.945 51.5241C121.945 49.9283 121.395 48.5654 120.295 47.4374C119.195 46.3094 117.865 45.7454 116.309 45.7454C114.753 45.7454 113.423 46.3094 112.323 47.4374C111.223 48.5654 110.673 49.9283 110.673 51.5241C110.673 53.1199 111.223 54.4846 112.323 55.6107Z" fill="#6E3BFF"/>
<path d="M136.961 49.3951C141.286 50.2575 143.449 52.1074 143.449 54.9447C143.449 56.7946 142.831 58.2576 141.594 59.3355C140.359 60.4135 138.603 60.9506 136.33 60.9506C134.599 60.9506 133.024 60.658 131.602 60.0766C130.181 59.4934 129.186 58.9236 128.617 58.3654L130.025 54.7927C130.716 55.503 131.662 56.092 132.862 56.5598C134.06 57.0295 135.179 57.2758 136.217 57.3009C137.329 57.3259 138.22 57.1488 138.887 56.7696C139.553 56.3904 139.887 55.9207 139.887 55.3624C139.887 54.7291 139.602 54.2402 139.035 53.8995C138.466 53.5569 137.589 53.272 136.403 53.0448C133.634 52.5386 131.743 51.8417 130.729 50.9543C129.715 50.0669 129.209 48.8504 129.209 47.3046C129.209 45.7589 129.869 44.5058 131.193 43.5414C132.515 42.5789 134.265 42.0977 136.439 42.0977C138.639 42.0977 140.789 42.6809 142.89 43.8455L141.665 47.2661C141.196 46.9119 140.46 46.577 139.459 46.2594C138.459 45.9437 137.451 45.7724 136.439 45.7454C135.425 45.7204 134.559 45.834 133.844 46.0881C133.127 46.3422 132.768 46.7599 132.768 47.3431C132.768 47.6473 132.86 47.9071 133.046 48.1227C133.232 48.3383 133.515 48.5154 133.898 48.6559C134.281 48.7945 134.646 48.91 134.993 48.9986C135.338 49.0871 135.797 49.1834 136.365 49.2835C136.638 49.3335 136.837 49.3701 136.961 49.3951Z" fill="#6E3BFF"/>
<path d="M155.685 42.0985C157.934 42.0985 159.646 42.8146 160.82 44.2468C161.993 45.6789 162.581 47.7502 162.581 50.4624V60.6511H159.021V50.4624C159.021 48.9167 158.719 47.7444 158.113 46.9455C157.506 46.1467 156.475 45.7482 155.017 45.7482C153.83 45.7482 152.719 46.1987 151.68 47.0976C150.642 47.9985 150.124 49.1688 150.124 50.6145V60.6511H146.564V33.8867H150.124V44.5317C151.508 42.9089 153.361 42.0985 155.685 42.0985Z" fill="#6E3BFF"/>
<path d="M168.089 44.8542C169.88 43.0178 172.05 42.0977 174.596 42.0977C177.142 42.0977 179.31 43.0159 181.103 44.8542C182.894 46.6925 183.792 48.9158 183.792 51.526C183.792 54.1363 182.896 56.3615 181.103 58.1979C179.31 60.0362 177.142 60.9544 174.596 60.9544C172.05 60.9544 169.882 60.0362 168.089 58.1979C166.296 56.3615 165.4 54.1363 165.4 51.526C165.4 48.9139 166.296 46.6906 168.089 44.8542ZM170.627 55.5915C171.739 56.733 173.062 57.3028 174.594 57.3028C176.126 57.3028 177.45 56.733 178.561 55.5915C179.673 54.4519 180.23 53.0949 180.23 51.5241C180.23 49.9533 179.675 48.5963 178.561 47.4567C177.45 46.3171 176.126 45.7454 174.594 45.7454C173.06 45.7454 171.739 46.3152 170.627 47.4567C169.516 48.5982 168.958 49.9533 168.958 51.5241C168.96 53.0968 169.516 54.4519 170.627 55.5915Z" fill="#6E3BFF"/>
<path d="M196.102 42.0977C198.672 42.0977 200.797 43.0101 202.479 44.8349C204.16 46.6598 205.001 48.8908 205.001 51.526C205.001 54.1632 204.16 56.3923 202.479 58.2171C200.799 60.042 198.672 60.9544 196.102 60.9544C193.629 60.9544 191.652 59.9669 190.169 57.99V70.3828H186.609V42.4018H190.169V45.0621C191.652 43.0852 193.629 42.0977 196.102 42.0977ZM191.819 55.6108C192.919 56.7388 194.249 57.3028 195.805 57.3028C197.362 57.3028 198.691 56.7388 199.791 55.6108C200.891 54.4827 201.441 53.1199 201.441 51.5241C201.441 49.9283 200.891 48.5655 199.791 47.4374C198.691 46.3094 197.362 45.7454 195.805 45.7454C194.249 45.7454 192.919 46.3094 191.819 47.4374C190.719 48.5655 190.169 49.9283 190.169 51.5241C190.169 53.1199 190.719 54.4847 191.819 55.6108Z" fill="#6E3BFF"/>
<path d="M18.3947 75.6605C17.5029 77.0599 4.49219 91.9455 4.49219 91.9455C4.49219 91.9455 12.5577 73.749 13.4495 72.3476C14.3413 70.9463 16.1718 70.5536 17.5367 71.4679C18.9016 72.3823 19.2865 74.2591 18.3947 75.6605Z" fill="#6E3BFF"/>
<path d="M28.9596 85.8354L32.4441 68.7842L31.1468 63.3732C26.2148 66.1951 22.6833 67.5041 22.5087 67.5696L19.0148 68.8535L18.9941 65.0479C18.9941 64.8554 18.9866 61.0132 19.884 55.3019L14.462 55.9063L0 65.096L11.8129 44.9996L23.7628 40.2257C25.6403 35.1304 28.0152 30.4643 30.8314 26.3392C42.6406 9.04548 61.462 1.98864 62.258 1.69604L65.7538 0.412109L65.7726 4.21772C65.7763 5.08395 65.7444 25.6327 53.9353 42.9245C51.1172 47.0516 47.6515 50.9361 43.6225 54.4896L43.3596 67.6042L28.9596 85.8354ZM34.5469 54.9766L37.3462 66.6533L38.1384 65.6504L38.4144 51.9313L39.3381 51.144C43.4028 47.6849 46.8648 43.8793 49.6284 39.835C57.4499 28.3815 59.6521 15.0706 60.2735 8.44298C54.4065 11.3169 42.9391 18.0099 35.1383 29.4306C32.3784 33.473 30.0748 38.1064 28.295 43.2036L27.8913 44.3605L15.3894 49.3538L14.7436 50.451L26.4157 49.1498L25.6797 52.7783C25.0376 55.9467 24.6828 58.7264 24.4894 60.8322C26.3556 59.9237 28.7869 58.6282 31.4735 56.9246L34.5469 54.9766Z" fill="#6E3BFF"/>
</svg>
