<svg width="24" height="27" viewBox="0 0 24 27" fill="none" xmlns="http://www.w3.org/2000/svg">
<g opacity="0.5" clip-path="url(#clip0_1_1899)">
<path d="M4 20.25H20C20.55 20.25 21 19.7437 21 19.125C21 18.5063 20.55 18 20 18H4C3.45 18 3 18.5063 3 19.125C3 19.7437 3.45 20.25 4 20.25ZM4 14.625H20C20.55 14.625 21 14.1188 21 13.5C21 12.8812 20.55 12.375 20 12.375H4C3.45 12.375 3 12.8812 3 13.5C3 14.1188 3.45 14.625 4 14.625ZM3 7.875C3 8.49375 3.45 9 4 9H20C20.55 9 21 8.49375 21 7.875C21 7.25625 20.55 6.75 20 6.75H4C3.45 6.75 3 7.25625 3 7.875Z" fill="#6E3BFF"/>
</g>
<defs>
<clipPath id="clip0_1_1899">
<rect width="24" height="27" fill="white"/>
</clipPath>
</defs>
</svg>
