<svg width="21" height="23" viewBox="0 0 21 23" fill="none" xmlns="http://www.w3.org/2000/svg">
<path d="M7.35459 17.5792H6.92347C3.47449 17.5792 1.75 16.6844 1.75 12.2108V7.73707C1.75 4.15813 3.47449 2.36865 6.92347 2.36865H13.8214C17.2704 2.36865 18.9949 4.15813 18.9949 7.73707V12.2108C18.9949 15.7897 17.2704 17.5792 13.8214 17.5792H13.3903C13.123 17.5792 12.8643 17.7134 12.7005 17.9371L11.4071 19.7265C10.8381 20.5139 9.90684 20.5139 9.33776 19.7265L8.04439 17.9371C7.90643 17.7402 7.5874 17.5792 7.35459 17.5792Z" stroke="#6E3BFF" stroke-width="1.5" stroke-miterlimit="10" stroke-linecap="round" stroke-linejoin="round"/>
<path d="M6.06152 7.73682H14.684" stroke="#6E3BFF" stroke-width="1.5" stroke-linecap="round" stroke-linejoin="round"/>
<path d="M6.06152 12.2104H11.235" stroke="#6E3BFF" stroke-width="1.5" stroke-linecap="round" stroke-linejoin="round"/>
</svg>
