<svg width="18" height="20" viewBox="0 0 18 20" fill="none" xmlns="http://www.w3.org/2000/svg">
<path fill-rule="evenodd" clip-rule="evenodd" d="M5.89318 3.79023C5.95984 3.32481 6.10206 3.06811 6.30356 2.89539C6.63888 2.60798 7.36334 2.35002 9.00039 2.35002C10.6374 2.35002 11.3619 2.60798 11.6972 2.89539C11.899 3.06838 12.0414 3.32561 12.1079 3.79243C11.2017 3.68947 10.169 3.65002 9.00039 3.65002C7.83039 3.65002 6.79814 3.68959 5.89318 3.79023ZM4.15928 4.1032C4.20322 3.17767 4.42709 2.26476 5.19722 1.60466C6.02857 0.892068 7.30411 0.650024 9.00039 0.650024C10.6967 0.650024 11.9722 0.892068 12.8036 1.60466C13.5767 2.26732 13.7993 3.18476 13.842 4.11398C14.7276 4.36095 15.478 4.73422 16.0808 5.29772C17.2618 6.40161 17.6882 8.05946 17.8095 10.239C17.8361 10.3212 17.8504 10.4089 17.8504 10.5C17.8504 10.6577 17.8473 10.8169 17.8391 10.9766C17.847 11.2793 17.8504 11.5911 17.8504 11.9118C17.8504 14.3466 17.5325 16.3446 16.0667 17.6541C14.6397 18.929 12.3378 19.35 9.00039 19.35C7.31557 19.35 5.9164 19.268 4.77163 19.0397C3.62261 18.8105 2.67061 18.4227 1.93507 17.7676C0.455645 16.45 0.150391 14.3223 0.150391 11.5C0.150391 11.2798 0.152249 11.0639 0.156377 10.8522C0.15213 10.7343 0.150391 10.6167 0.150391 10.5C0.150391 10.4331 0.158123 10.368 0.172744 10.3055C0.264932 8.07216 0.672228 6.35718 1.93507 5.23246C2.53568 4.69754 3.2806 4.34084 4.15928 4.1032ZM1.85739 10.841C1.91133 8.41926 2.28007 7.20168 3.06572 6.50196C3.49683 6.118 4.12817 5.82221 5.10415 5.62755C6.08438 5.43205 7.35187 5.35002 9.00039 5.35002C10.6497 5.35002 11.9146 5.43218 12.8918 5.633C13.8627 5.83253 14.4896 6.13738 14.92 6.53964C15.6921 7.26138 16.065 8.5152 16.1372 10.959C16.114 11.3253 16.059 11.6213 15.9617 11.8695C15.8374 12.1868 15.6286 12.4659 15.2266 12.7153C14.3438 13.263 12.5696 13.65 9.00643 13.65C5.44362 13.65 3.66562 13.2631 2.77934 12.7147C2.37542 12.4648 2.1654 12.1851 2.04035 11.868C1.93234 11.594 1.87591 11.2617 1.85739 10.841ZM15.983 14.243C15.8018 15.2423 15.4651 15.912 14.9341 16.3864C14.0278 17.196 12.3297 17.65 9.00039 17.65C7.35187 17.65 6.08438 17.568 5.10415 17.3725C4.12817 17.1778 3.49683 16.8821 3.06572 16.4981C2.54809 16.0371 2.21144 15.3513 2.02656 14.2444C3.3761 15.0116 5.56879 15.35 9.00643 15.35C12.4451 15.35 14.6361 15.0114 15.983 14.243ZM6.15039 11.5C6.15039 11.0306 6.53095 10.65 7.00039 10.65H11.0004C11.4698 10.65 11.8504 11.0306 11.8504 11.5C11.8504 11.9695 11.4698 12.35 11.0004 12.35L7.00039 12.35C6.53095 12.35 6.15039 11.9695 6.15039 11.5Z" fill="#6E3BFF"/>
</svg>
