<svg width="20" height="21" viewBox="0 0 20 21" fill="none" xmlns="http://www.w3.org/2000/svg">
<path fill-rule="evenodd" clip-rule="evenodd" d="M1.85039 10.5C1.85039 5.9989 5.49927 2.35002 10.0004 2.35002C10.8913 2.35002 11.7472 2.49266 12.5475 2.7557C12.9934 2.90228 13.4738 2.65958 13.6204 2.21361C13.767 1.76764 13.5243 1.28728 13.0783 1.1407C12.1088 0.822055 11.0739 0.650024 10.0004 0.650024C4.56039 0.650024 0.150391 5.06002 0.150391 10.5C0.150391 15.94 4.56039 20.35 10.0004 20.35C15.4404 20.35 19.8504 15.94 19.8504 10.5C19.8504 10.0306 19.4698 9.65002 19.0004 9.65002C18.5309 9.65002 18.1504 10.0306 18.1504 10.5C18.1504 15.0011 14.5015 18.65 10.0004 18.65C5.49927 18.65 1.85039 15.0011 1.85039 10.5ZM17.6027 6.09976C17.934 5.7671 17.9328 5.22891 17.6001 4.89768C17.2675 4.56646 16.7293 4.56762 16.398 4.90029L10.05 11.276L7.62132 8.67807C7.30073 8.33514 6.76284 8.31703 6.41992 8.63762C6.07699 8.95821 6.05888 9.49609 6.37946 9.83902L9.40977 13.0805C9.56733 13.249 9.78662 13.3463 10.0173 13.3499C10.248 13.3536 10.4703 13.2633 10.633 13.0998L17.6027 6.09976Z" fill="#6E3BFF"/>
</svg>
