<svg width="23" height="23" viewBox="0 0 23 23" fill="none" xmlns="http://www.w3.org/2000/svg">
<path d="M20.301 8.25H20.205C20.0643 8.24876 19.9272 8.20516 19.8116 8.1249C19.696 8.04463 19.6073 7.93142 19.557 7.8C19.504 7.6731 19.49 7.53331 19.5167 7.39842C19.5434 7.26353 19.6097 7.13963 19.707 7.0425L19.7752 6.97425C20.1867 6.56126 20.4177 6.00207 20.4177 5.41913C20.4177 4.83618 20.1867 4.27699 19.7752 3.864L18.642 2.7315C18.2293 2.31977 17.6702 2.08854 17.0872 2.08854C16.5043 2.08854 15.9452 2.31977 15.5325 2.7315L15.4642 2.79975C15.3637 2.89658 15.2371 2.96196 15.0999 2.98785C14.9627 3.01375 14.821 2.99903 14.692 2.94552C14.5631 2.892 14.4526 2.80201 14.3741 2.68659C14.2955 2.57116 14.2524 2.43533 14.25 2.29575V2.199C14.2494 1.61597 14.0175 1.05699 13.6053 0.64473C13.193 0.232467 12.634 0.000595636 12.051 0H10.449C9.86597 0.000595636 9.30699 0.232467 8.89473 0.64473C8.48247 1.05699 8.2506 1.61597 8.25 2.199V2.29575C8.24634 2.43433 8.2026 2.56887 8.12405 2.6831C8.04551 2.79733 7.93553 2.88633 7.80744 2.93935C7.67936 2.99236 7.53865 3.0071 7.40235 2.9818C7.26606 2.95649 7.14002 2.89221 7.0395 2.79675L6.975 2.7285C6.56233 2.31677 6.00319 2.08554 5.42025 2.08554C4.83731 2.08554 4.27817 2.31677 3.8655 2.7285L2.7285 3.861C2.31709 4.27399 2.08609 4.83318 2.08609 5.41613C2.08609 5.99907 2.31709 6.55826 2.7285 6.97125L2.79675 7.0395C2.89504 7.14006 2.96083 7.26785 2.98557 7.40627C3.01031 7.5447 2.99287 7.68737 2.9355 7.81575C2.88403 7.94362 2.7956 8.05325 2.68151 8.1306C2.56741 8.20795 2.43284 8.24953 2.295 8.25H2.199C1.61597 8.2506 1.05699 8.48247 0.64473 8.89473C0.232467 9.30699 0.000595636 9.86597 0 10.449V12.051C0.000595636 12.634 0.232467 13.193 0.64473 13.6053C1.05699 14.0175 1.61597 14.2494 2.199 14.25H2.295C2.43571 14.2512 2.57279 14.2948 2.68837 14.3751C2.80396 14.4554 2.89268 14.5686 2.943 14.7C2.99597 14.8269 3.01 14.9667 2.98329 15.1016C2.95657 15.2365 2.89034 15.3604 2.793 15.4575L2.72475 15.5258C2.31334 15.9387 2.08234 16.4979 2.08234 17.0809C2.08234 17.6638 2.31334 18.223 2.72475 18.636L3.85725 19.7677C4.26985 20.1799 4.82919 20.4114 5.41238 20.4114C5.99556 20.4114 6.5549 20.1799 6.9675 19.7677L7.03575 19.6995C7.13637 19.6013 7.26415 19.5356 7.40255 19.5108C7.54095 19.4861 7.6836 19.5035 7.812 19.5607C7.93988 19.612 8.04953 19.7003 8.1269 19.8143C8.20427 19.9282 8.24583 20.0627 8.24625 20.2005V20.2972C8.24605 20.5866 8.30289 20.8731 8.41352 21.1404C8.52415 21.4078 8.6864 21.6507 8.89098 21.8553C9.09556 22.0599 9.33847 22.2221 9.60581 22.3327C9.87315 22.4434 10.1597 22.5002 10.449 22.5H12.051C12.634 22.4994 13.193 22.2675 13.6053 21.8553C14.0175 21.443 14.2494 20.884 14.25 20.301V20.2043C14.2537 20.0657 14.2974 19.9311 14.3759 19.8169C14.4545 19.7027 14.5645 19.6137 14.6926 19.5607C14.8206 19.5076 14.9614 19.4929 15.0976 19.5182C15.2339 19.5435 15.36 19.6078 15.4605 19.7033L15.5287 19.7715C15.9414 20.1832 16.5006 20.4145 17.0835 20.4145C17.6664 20.4145 18.2256 20.1832 18.6383 19.7715L19.7715 18.6398C20.1829 18.2268 20.4139 17.6676 20.4139 17.0846C20.4139 16.5017 20.1829 15.9425 19.7715 15.5295L19.7033 15.4613C19.605 15.3607 19.5392 15.2329 19.5144 15.0945C19.4897 14.9561 19.5071 14.8134 19.5645 14.685C19.6159 14.557 19.7042 14.4472 19.8183 14.3697C19.9324 14.2922 20.0671 14.2505 20.205 14.25H20.301C20.884 14.2494 21.443 14.0175 21.8553 13.6053C22.2675 13.193 22.4994 12.634 22.5 12.051V10.449C22.4994 9.86597 22.2675 9.30699 21.8553 8.89473C21.443 8.48247 20.884 8.2506 20.301 8.25ZM21 12.051C20.9998 12.2363 20.9261 12.414 20.795 12.545C20.664 12.6761 20.4863 12.7498 20.301 12.75H20.205C19.7698 12.7537 19.3453 12.8854 18.9844 13.1288C18.6235 13.3721 18.3423 13.7163 18.1757 14.1184C18.0091 14.5205 17.9645 14.9627 18.0476 15.39C18.1307 15.8172 18.3377 16.2106 18.6427 16.521L18.7103 16.5892C18.8412 16.7206 18.9147 16.8984 18.9147 17.0839C18.9147 17.2693 18.8412 17.4472 18.7103 17.5785L17.577 18.7103C17.4459 18.8413 17.2681 18.915 17.0828 18.915C16.8974 18.915 16.7196 18.8413 16.5885 18.7103L16.521 18.642C16.2105 18.3373 15.8171 18.1306 15.39 18.0477C14.9629 17.9649 14.5208 18.0095 14.1188 18.176C13.7169 18.3425 13.3728 18.6236 13.1294 18.9843C12.886 19.3449 12.754 19.7692 12.75 20.2043V20.301C12.7498 20.4863 12.6761 20.664 12.545 20.795C12.414 20.9261 12.2363 20.9998 12.051 21H10.449C10.2637 20.9998 10.086 20.9261 9.95495 20.795C9.82391 20.664 9.7502 20.4863 9.75 20.301V20.2043C9.74789 19.7683 9.61708 19.3427 9.37398 18.9808C9.13088 18.6189 8.78631 18.3369 8.38352 18.1701C7.98073 18.0033 7.53765 17.9592 7.10987 18.0433C6.6821 18.1274 6.28869 18.3359 5.979 18.6427L5.91075 18.711C5.77947 18.8417 5.60176 18.9151 5.4165 18.9151C5.23124 18.9151 5.05353 18.8417 4.92225 18.711L3.78975 17.5793C3.65881 17.4479 3.58528 17.2701 3.58528 17.0846C3.58528 16.8992 3.65881 16.7213 3.78975 16.59L3.858 16.5217C4.1634 16.2113 4.37061 15.8178 4.45379 15.3904C4.53697 14.963 4.49243 14.5205 4.32572 14.1182C4.15901 13.7159 3.87753 13.3716 3.51639 13.1283C3.15525 12.885 2.73045 12.7534 2.295 12.75H2.199C2.01367 12.7498 1.836 12.6761 1.70495 12.545C1.57391 12.414 1.5002 12.2363 1.5 12.051V10.449C1.5002 10.2637 1.57391 10.086 1.70495 9.95495C1.836 9.82391 2.01367 9.7502 2.199 9.75H2.295C2.73023 9.7463 3.15474 9.61456 3.51561 9.37123C3.87648 9.12789 4.15774 8.78371 4.32433 8.38161C4.49091 7.9795 4.53545 7.53725 4.45239 7.11001C4.36933 6.68276 4.16235 6.28941 3.85725 5.979L3.78975 5.91075C3.65886 5.77957 3.58535 5.60182 3.58535 5.4165C3.58535 5.23118 3.65886 5.05343 3.78975 4.92225L4.92225 3.789C5.05334 3.65792 5.23112 3.58429 5.4165 3.58429C5.60188 3.58429 5.77966 3.65792 5.91075 3.789L5.97825 3.85725C6.28871 4.16221 6.68203 4.36908 7.10922 4.45211C7.53641 4.53514 7.97858 4.49065 8.38067 4.32419C8.78275 4.15773 9.12698 3.87664 9.37047 3.51596C9.61396 3.15527 9.74595 2.73091 9.75 2.29575V2.199C9.7502 2.01367 9.82391 1.836 9.95495 1.70495C10.086 1.57391 10.2637 1.5002 10.449 1.5H12.051C12.2363 1.5002 12.414 1.57391 12.545 1.70495C12.6761 1.836 12.7498 2.01367 12.75 2.199V2.29575C12.7538 2.73092 12.8857 3.15533 13.1291 3.51608C13.3725 3.87684 13.7167 4.15799 14.1187 4.32448C14.5208 4.49097 14.963 4.53545 15.3902 4.45236C15.8174 4.36928 16.2106 4.16231 16.521 3.85725L16.5892 3.789C16.7203 3.65792 16.8981 3.58429 17.0835 3.58429C17.2689 3.58429 17.4467 3.65792 17.5778 3.789L18.7103 4.92225C18.8411 5.05343 18.9147 5.23118 18.9147 5.4165C18.9147 5.60182 18.8411 5.77957 18.7103 5.91075L18.642 5.979C18.3369 6.28945 18.1299 6.68287 18.0468 7.11019C17.9638 7.5375 18.0084 7.97981 18.1751 8.38195C18.3417 8.78408 18.6231 9.12825 18.9841 9.37153C19.3451 9.61481 19.7697 9.74644 20.205 9.75H20.301C20.4863 9.7502 20.664 9.82391 20.795 9.95495C20.9261 10.086 20.9998 10.2637 21 10.449V12.051Z" fill="black"/>
<path d="M11.25 6C10.2117 6 9.19662 6.30791 8.33326 6.88478C7.4699 7.46166 6.79699 8.2816 6.39963 9.24091C6.00227 10.2002 5.89831 11.2558 6.10088 12.2742C6.30345 13.2926 6.80347 14.2281 7.53769 14.9623C8.27192 15.6965 9.20738 16.1966 10.2258 16.3991C11.2442 16.6017 12.2998 16.4977 13.2591 16.1004C14.2184 15.703 15.0383 15.0301 15.6152 14.1667C16.1921 13.3034 16.5 12.2884 16.5 11.25C16.4984 9.8581 15.9448 8.52367 14.9606 7.53944C13.9763 6.55522 12.6419 6.00159 11.25 6ZM11.25 15C10.5083 15 9.7833 14.7801 9.16661 14.368C8.54993 13.956 8.06928 13.3703 7.78545 12.6851C7.50162 11.9998 7.42736 11.2458 7.57206 10.5184C7.71675 9.79098 8.0739 9.1228 8.59835 8.59835C9.1228 8.0739 9.79098 7.71675 10.5184 7.57205C11.2458 7.42736 11.9998 7.50162 12.6851 7.78545C13.3703 8.06928 13.956 8.54993 14.368 9.16661C14.7801 9.7833 15 10.5083 15 11.25C14.9988 12.2442 14.6033 13.1973 13.9003 13.9003C13.1973 14.6033 12.2442 14.9988 11.25 15Z" fill="black"/>
</svg>
