<svg width="25" height="22" viewBox="0 0 25 22" fill="none" xmlns="http://www.w3.org/2000/svg">
<path d="M23.666 8.29853H18.4768L13.721 1.18104C13.2877 0.541869 12.3452 0.541869 11.9227 1.18104L7.16685 8.29853H1.99935C1.40352 8.29853 0.916016 8.78603 0.916016 9.38187C0.916016 9.47937 0.926849 9.57687 0.959349 9.67437L3.71102 19.7169C3.96018 20.6269 4.79435 21.2985 5.79102 21.2985H19.8743C20.871 21.2985 21.7052 20.6269 21.9652 19.7169L24.7168 9.67437L24.7493 9.38187C24.7493 8.78603 24.2618 8.29853 23.666 8.29853ZM12.8218 3.7377L15.866 8.29853H9.77768L12.8218 3.7377ZM12.8327 16.9652C11.641 16.9652 10.666 15.9902 10.666 14.7985C10.666 13.6069 11.641 12.6319 12.8327 12.6319C14.0243 12.6319 14.9993 13.6069 14.9993 14.7985C14.9993 15.9902 14.0243 16.9652 12.8327 16.9652Z" fill="#6E3BFF"/>
</svg>
