<svg width="12" height="12" viewBox="0 0 12 12" fill="none" xmlns="http://www.w3.org/2000/svg">
<path d="M3.21423 0.796753C3.06346 0.947529 2.9711 1.15705 2.9714 1.38716L2.9714 1.48844C2.9714 1.94924 3.34443 2.32227 3.80464 2.32168L8.35756 2.32168L0.655805 10.0234C0.330536 10.3487 0.330536 10.8767 0.655806 11.2019C0.981075 11.5272 1.50905 11.5272 1.83432 11.2019L9.53607 3.50019V8.05311C9.53607 8.51391 9.90911 8.88695 10.3693 8.88636H10.4706C10.9314 8.88636 11.3044 8.51332 11.3038 8.05311V1.38716C11.3038 0.926361 10.9308 0.553326 10.4706 0.553915L3.80464 0.553915C3.57424 0.553915 3.36501 0.645977 3.21423 0.796753Z" fill="#34C759"/>
</svg>
