<svg width="19" height="19" viewBox="0 0 19 19" fill="none" xmlns="http://www.w3.org/2000/svg">
<path fill-rule="evenodd" clip-rule="evenodd" d="M3.85039 5.50002C3.85039 3.76033 5.26069 2.35002 7.00039 2.35002C8.74009 2.35002 10.1504 3.76033 10.1504 5.50002C10.1504 7.23972 8.74009 8.65002 7.00039 8.65002C5.26069 8.65002 3.85039 7.23972 3.85039 5.50002ZM7.00039 0.650024C4.32181 0.650024 2.15039 2.82144 2.15039 5.50002C2.15039 8.17861 4.32181 10.35 7.00039 10.35C9.67897 10.35 11.8504 8.17861 11.8504 5.50002C11.8504 2.82144 9.67897 0.650024 7.00039 0.650024ZM1.85039 15.4167C1.85039 15.0137 2.17904 14.4979 3.21876 14.0388C4.20829 13.6018 5.58463 13.35 7.00039 13.35C8.3961 13.35 9.77128 13.6431 10.7683 14.1047C11.2672 14.3357 11.6332 14.5912 11.8634 14.8378C12.085 15.0753 12.148 15.2656 12.1503 15.4085C12.1422 15.4301 12.1054 15.4982 11.9631 15.6088C11.7446 15.7786 11.3801 15.9616 10.8653 16.1271C9.84495 16.455 8.43669 16.65 7.00039 16.65C5.30189 16.65 3.90375 16.4521 2.96169 16.1316C2.48803 15.9704 2.18145 15.7955 2.00808 15.6425C1.84932 15.5024 1.85024 15.4287 1.85038 15.4174L1.85039 15.4167ZM12.1523 15.4011C12.1525 15.4011 12.1523 15.403 12.1509 15.4068C12.1514 15.403 12.1521 15.4011 12.1523 15.4011ZM7.00039 11.65C5.41615 11.65 3.79249 11.9271 2.53202 12.4837C1.32174 13.0181 0.150391 13.9607 0.150391 15.4167C0.150391 16.0456 0.467942 16.5507 0.883325 16.9173C1.28808 17.2744 1.82525 17.5406 2.41409 17.741C3.59703 18.1435 5.19889 18.35 7.00039 18.35C8.56409 18.35 10.1558 18.1407 11.3854 17.7455C11.9957 17.5494 12.5686 17.2913 13.0064 16.951C13.4408 16.6134 13.8504 16.1034 13.8504 15.4167C13.8504 14.7271 13.5365 14.139 13.1062 13.6779C12.6801 13.2213 12.1085 12.8518 11.4825 12.562C10.2295 11.9819 8.60468 11.65 7.00039 11.65ZM13.1543 9.41849C13.1993 8.95122 13.6146 8.60892 14.0819 8.65394C15.2961 8.77095 16.4226 9.08656 17.2738 9.57881C18.0981 10.0555 18.8504 10.82 18.8504 11.8733C18.8504 12.4192 18.6414 12.9171 18.2353 13.3126C17.8523 13.6855 17.3295 13.935 16.7322 14.1043C16.2806 14.2323 15.8107 13.97 15.6826 13.5184C15.5546 13.0667 15.8169 12.5968 16.2686 12.4688C16.7161 12.3419 16.9433 12.1978 17.0492 12.0947C17.1318 12.0143 17.1504 11.9536 17.1504 11.8733C17.1504 11.7166 17.0332 11.4034 16.4228 11.0505C15.8392 10.713 14.9657 10.447 13.9189 10.3461C13.4516 10.3011 13.1093 9.88577 13.1543 9.41849ZM15.0004 0.650024C14.5309 0.650024 14.1504 1.03058 14.1504 1.50002C14.1504 1.96947 14.5309 2.35002 15.0004 2.35002C15.9117 2.35002 16.6504 3.08875 16.6504 4.00002C16.6504 4.91129 15.9117 5.65002 15.0004 5.65002C14.5309 5.65002 14.1504 6.03058 14.1504 6.50002C14.1504 6.96947 14.5309 7.35002 15.0004 7.35002C16.8505 7.35002 18.3504 5.85018 18.3504 4.00002C18.3504 2.14987 16.8505 0.650024 15.0004 0.650024Z" fill="#6E3BFF"/>
</svg>
