<svg width="59" height="32" viewBox="0 0 59 32" fill="none" xmlns="http://www.w3.org/2000/svg">
<g clip-path="url(#clip0_0_13522)">
<path d="M29.4984 32C20.1418 32 10.7836 32 1.42701 32C0.254256 32 0 31.775 0 30.7358C0 20.9105 0 11.0867 0 1.26279C0 0.223589 0.252666 0 1.4286 0C20.1434 0 38.8582 0 57.5714 0C58.7442 0 58.9984 0.224996 58.9984 1.26419C58.9984 11.0881 58.9984 20.9119 58.9984 30.7372C58.9984 31.7736 58.741 32 57.5698 32C48.2132 32 38.855 32 29.4984 32ZM29.4857 30.3153C38.4657 30.3153 47.4441 30.3111 56.4241 30.3252C56.9501 30.3266 57.1106 30.2268 57.1106 29.7332C57.0915 20.5773 57.0915 11.4213 57.1106 2.26402C57.1122 1.76762 56.9453 1.6734 56.4225 1.6734C38.4641 1.68465 20.5057 1.68465 2.54732 1.6734C2.0404 1.6734 1.88944 1.76059 1.89103 2.23871C1.91009 11.4129 1.91009 20.5857 1.89103 29.7599C1.88944 30.2408 2.04676 30.3252 2.54891 30.3238C11.5273 30.3111 20.5057 30.3153 29.4857 30.3153Z" fill="black"/>
<path d="M11.4192 15.9621C11.4192 18.6466 11.4192 21.3297 11.4192 24.0142C11.4192 24.1548 11.4272 24.2954 11.4144 24.4346C11.3668 24.9296 10.9663 25.2671 10.4499 25.2587C9.95565 25.2502 9.57585 24.924 9.52341 24.4557C9.51229 24.3517 9.51706 24.2448 9.51706 24.1407C9.51706 18.7197 9.51706 13.3002 9.51706 7.87917C9.51706 7.73854 9.50276 7.59511 9.53295 7.45871C9.63783 7.00731 9.95883 6.74153 10.4848 6.74716C10.9838 6.75278 11.2921 7.01293 11.397 7.43902C11.4383 7.60777 11.4192 7.78776 11.4192 7.96354C11.4192 10.6297 11.4192 13.2959 11.4192 15.9621Z" fill="black"/>
<path d="M20.9345 15.9996C20.9345 13.3151 20.9345 10.632 20.9345 7.94755C20.9345 7.79006 20.917 7.62834 20.9488 7.47506C21.0425 7.02085 21.3588 6.74805 21.8848 6.74805C22.4108 6.74805 22.7254 7.02226 22.8223 7.47506C22.8541 7.62834 22.8382 7.79006 22.8382 7.94755C22.8382 13.3151 22.8382 18.6841 22.8382 24.0516C22.8382 24.2091 22.8557 24.3708 22.8239 24.5241C22.7286 24.9769 22.4139 25.2525 21.8879 25.2525C21.3635 25.2525 21.0457 24.9797 20.952 24.5255C20.9202 24.3722 20.9377 24.2105 20.9377 24.053C20.9345 21.3671 20.9345 18.6827 20.9345 15.9996Z" fill="black"/>
<path d="M24.7431 16C24.7431 13.3155 24.7431 10.6325 24.7431 7.94798C24.7431 7.79049 24.7256 7.62877 24.7574 7.47549C24.8511 7.02128 25.1674 6.74848 25.6934 6.74707C26.2193 6.74707 26.534 7.02128 26.6309 7.47409C26.6627 7.62737 26.6468 7.78908 26.6468 7.94658C26.6468 13.3141 26.6468 18.6831 26.6468 24.0506C26.6468 24.2081 26.6643 24.3699 26.6325 24.5231C26.5372 24.9759 26.2225 25.2516 25.6965 25.2516C25.1721 25.2516 24.8543 24.9787 24.7606 24.5245C24.7288 24.3713 24.7463 24.2095 24.7463 24.052C24.7415 21.3676 24.7431 18.6845 24.7431 16Z" fill="black"/>
<path d="M28.5476 15.9678C28.5476 13.3016 28.5476 10.6354 28.5476 7.96922C28.5476 7.81172 28.5317 7.65 28.5587 7.49673C28.6414 7.0397 28.9497 6.77393 29.4741 6.7458C29.9651 6.71768 30.3767 7.04955 30.4402 7.50657C30.4609 7.66266 30.4498 7.82156 30.4498 7.97906C30.4498 13.3297 30.4498 18.6804 30.4498 24.0297C30.4498 24.1872 30.4657 24.3489 30.437 24.5022C30.3528 24.9578 30.0445 25.225 29.5217 25.2545C29.0307 25.2826 28.6191 24.9494 28.5571 24.4923C28.5365 24.3362 28.5476 24.1773 28.5476 24.0198C28.5476 21.3354 28.5476 18.6523 28.5476 15.9678Z" fill="black"/>
<path d="M32.3544 16C32.3544 13.3155 32.3544 10.6325 32.3544 7.94799C32.3544 7.79049 32.3369 7.62878 32.3687 7.4755C32.4625 7.02129 32.7787 6.74848 33.3031 6.74708C33.8291 6.74567 34.1437 7.02129 34.2407 7.47269C34.274 7.62596 34.2566 7.78768 34.2566 7.94518C34.2566 13.3127 34.2566 18.6817 34.2566 24.0492C34.2566 24.2067 34.274 24.3685 34.2423 24.5217C34.1469 24.9745 33.8323 25.2502 33.3063 25.2502C32.7819 25.2502 32.4641 24.9773 32.3687 24.5231C32.3369 24.3699 32.3544 24.2081 32.3544 24.0506C32.3544 21.3676 32.3544 18.6845 32.3544 16Z" fill="black"/>
<path d="M45.6765 16.053C45.6765 18.7192 45.6765 21.3854 45.6765 24.0516C45.6765 24.2091 45.694 24.3708 45.6606 24.5241C45.5637 24.9769 45.249 25.2511 44.723 25.2511C44.1986 25.2497 43.8824 24.9769 43.7886 24.5227C43.7568 24.3694 43.7743 24.2077 43.7743 24.0502C43.7743 18.6827 43.7743 13.3137 43.7743 7.94615C43.7743 7.78866 43.7568 7.62694 43.7886 7.47366C43.884 7.01945 44.2002 6.74665 44.7262 6.74805C45.2522 6.74805 45.5668 7.02367 45.6622 7.47648C45.694 7.62975 45.6765 7.79147 45.6765 7.94897C45.6765 10.6489 45.6765 13.3503 45.6765 16.053Z" fill="black"/>
<path d="M49.4831 15.999C49.4831 18.6835 49.4831 21.3666 49.4831 24.0511C49.4831 24.2086 49.5006 24.3703 49.4672 24.5236C49.3719 24.9764 49.0556 25.252 48.5312 25.2506C48.0068 25.2506 47.6906 24.9764 47.5953 24.5222C47.5635 24.3689 47.581 24.2072 47.581 24.0497C47.581 18.6821 47.581 13.3132 47.581 7.9456C47.581 7.7881 47.5635 7.62639 47.5953 7.47311C47.689 7.0189 48.0053 6.74609 48.5312 6.74609C49.0572 6.74609 49.3719 7.02031 49.4672 7.47311C49.499 7.62639 49.4815 7.7881 49.4815 7.9456C49.4831 10.6315 49.4831 13.316 49.4831 15.999Z" fill="black"/>
<path d="M15.2242 14.3482C15.2242 16.5053 15.2226 18.6639 15.2274 20.821C15.2274 21.1276 15.2036 21.4215 14.9334 21.645C14.6696 21.8644 14.3582 21.953 14.0022 21.8518C13.6304 21.7449 13.4031 21.5143 13.338 21.174C13.3094 21.0193 13.3205 20.859 13.3205 20.7015C13.3205 16.4392 13.3205 12.1755 13.3205 7.91329C13.3205 7.80782 13.3157 7.70235 13.3237 7.59829C13.3618 7.09346 13.7337 6.75175 14.2501 6.7405C14.7888 6.72925 15.2052 7.0808 15.2179 7.61235C15.2369 8.45468 15.2242 9.2956 15.2242 10.1379C15.2242 11.5413 15.2242 12.9447 15.2242 14.3482Z" fill="black"/>
<path d="M19.0335 14.3151C19.0335 16.4723 19.0319 18.6308 19.0351 20.788C19.0351 21.0537 19.0415 21.3195 18.8444 21.5417C18.5886 21.83 18.2501 21.9622 17.848 21.8609C17.4015 21.7484 17.1472 21.4686 17.1361 21.0509C17.1234 20.525 17.1314 19.9991 17.1314 19.4717C17.1314 15.6651 17.1314 11.8585 17.1314 8.05181C17.1314 7.91119 17.125 7.77057 17.1329 7.63135C17.1631 7.09277 17.5413 6.74121 18.0816 6.74121C18.6219 6.74121 19.0192 7.09417 19.0272 7.63276C19.043 8.71977 19.0335 9.80818 19.0335 10.8952C19.0335 12.0342 19.0335 13.1747 19.0335 14.3151Z" fill="black"/>
<path d="M38.0643 14.2845C38.0643 16.4599 38.0627 18.6354 38.0659 20.8108C38.0659 21.0963 38.0564 21.3775 37.8228 21.5997C37.559 21.8514 37.2348 21.9569 36.855 21.8556C36.4816 21.7558 36.2496 21.5252 36.1812 21.1863C36.151 21.033 36.1622 20.8713 36.1622 20.7138C36.1606 16.4515 36.1622 12.1878 36.1622 7.92558C36.1622 7.82011 36.1574 7.71465 36.1653 7.61059C36.2019 7.08044 36.5976 6.72889 37.1379 6.74154C37.6543 6.7542 38.0421 7.09591 38.0595 7.60074C38.0802 8.24901 38.0659 8.89869 38.0659 9.54836C38.0643 11.1261 38.0643 12.7053 38.0643 14.2845Z" fill="black"/>
<path d="M41.8695 14.3156C41.8695 16.5079 41.8727 18.7016 41.8679 20.8939C41.8663 21.4915 41.5263 21.8571 40.9764 21.8895C40.4234 21.9218 39.9848 21.5506 39.9721 20.9979C39.9546 20.2611 39.9674 19.5242 39.9674 18.7874C39.9674 15.1382 39.9674 11.4905 39.9658 7.84133C39.9658 7.55727 39.9626 7.27462 40.193 7.04681C40.4679 6.77401 40.8096 6.66291 41.21 6.78666C41.6534 6.92447 41.8679 7.21978 41.8695 7.6318C41.8727 8.98318 41.8711 10.3332 41.8711 11.6845C41.8711 12.562 41.8711 13.4381 41.8695 14.3156Z" fill="black"/>
<path d="M7.61358 3.36773C8.50507 3.36773 9.39655 3.36351 10.288 3.36914C10.9872 3.37476 11.4131 3.69819 11.4147 4.20724C11.4163 4.7163 10.9872 5.04535 10.2912 5.04957C8.92459 5.0552 7.55797 5.06504 6.19134 5.04395C5.79407 5.03832 5.69554 5.14941 5.7019 5.48691C5.72256 6.67798 5.71302 7.87045 5.70826 9.06293C5.70508 9.71823 5.338 10.1078 4.74685 10.1007C4.1573 10.0937 3.80929 9.70979 3.8077 9.04324C3.80452 7.50062 3.80293 5.95799 3.8077 4.41677C3.80929 3.66444 4.143 3.37476 4.99952 3.37054C5.87193 3.36492 6.74276 3.36773 7.61358 3.36773Z" fill="black"/>
<path d="M55.1927 6.73537C55.1927 7.52426 55.199 8.31315 55.1911 9.10204C55.1847 9.71938 54.8176 10.0991 54.244 10.1005C53.6687 10.1019 53.2953 9.72359 53.2921 9.10767C53.2857 7.89832 53.2746 6.68897 53.2984 5.47961C53.3048 5.12946 53.1824 5.03947 52.7995 5.04509C51.4535 5.06478 50.1059 5.05493 48.7584 5.05072C48.0147 5.0479 47.5777 4.72728 47.5841 4.20136C47.5904 3.67684 48.0226 3.37028 48.7759 3.36887C50.5191 3.36606 52.2624 3.36465 54.0056 3.36887C54.8558 3.37028 55.1863 3.66559 55.1911 4.42213C55.1974 5.19274 55.1927 5.96476 55.1927 6.73537Z" fill="black"/>
<path d="M3.80514 25.2569C3.80514 24.468 3.79879 23.6791 3.80673 22.8903C3.81309 22.2729 4.18176 21.8961 4.7586 21.8975C5.33385 21.8989 5.70252 22.2757 5.7057 22.8945C5.71206 24.087 5.72954 25.278 5.69617 26.4691C5.68504 26.8769 5.83124 26.9627 6.26189 26.9542C7.56812 26.9289 8.87595 26.943 10.1838 26.9458C10.9767 26.9472 11.4233 27.2608 11.4121 27.7994C11.4026 28.3211 10.9672 28.6262 10.2124 28.6276C8.46914 28.6305 6.7259 28.6319 4.98266 28.6276C4.13567 28.6248 3.80832 28.3281 3.80355 27.5688C3.80196 26.7996 3.80514 26.0275 3.80514 25.2569Z" fill="black"/>
<path d="M55.1929 25.287C55.1929 26.0759 55.2008 26.8648 55.1897 27.6537C55.1817 28.309 54.8321 28.6254 54.0964 28.6282C52.2943 28.6366 50.4907 28.6352 48.6887 28.6282C48.0006 28.6254 47.5715 28.2808 47.5843 27.7704C47.597 27.2768 48.0085 26.9534 48.6696 26.9491C50.0553 26.9407 51.4426 26.9365 52.8299 26.9534C53.189 26.9576 53.305 26.876 53.2987 26.5455C53.2764 25.3362 53.2859 24.1268 53.2907 22.9175C53.2939 22.2889 53.6403 21.9135 54.2124 21.898C54.8051 21.8811 55.1865 22.2734 55.1913 22.9203C55.1976 23.7106 55.1929 24.4995 55.1929 25.287Z" fill="black"/>
<path d="M13.3319 23.9577C13.3319 23.8002 13.3065 23.6385 13.3366 23.4852C13.424 23.031 13.7371 22.7666 14.2615 22.7441C14.7557 22.723 15.1673 23.0521 15.2134 23.5161C15.2436 23.8297 15.242 24.1489 15.215 24.4625C15.1752 24.9308 14.7795 25.2542 14.2853 25.2599C13.7673 25.2669 13.3716 24.928 13.3271 24.4316C13.3128 24.2741 13.3255 24.1166 13.3255 23.9577C13.3287 23.9577 13.3303 23.9577 13.3319 23.9577Z" fill="black"/>
<path d="M17.1283 23.9932C17.1283 23.9229 17.1267 23.8526 17.1283 23.7823C17.1378 23.1214 17.4922 22.736 18.0849 22.7403C18.6776 22.7445 19.0225 23.1284 19.0304 23.7935C19.032 23.9862 19.0383 24.1802 19.0272 24.3715C18.9954 24.9059 18.6093 25.2602 18.0722 25.2574C17.5351 25.2532 17.16 24.8988 17.1298 24.3602C17.1235 24.2393 17.1298 24.1156 17.1283 23.9932Z" fill="black"/>
<path d="M36.1619 23.9946C36.1619 23.9243 36.1603 23.854 36.1619 23.7837C36.1714 23.1199 36.521 22.7374 37.1185 22.7402C37.7112 22.7431 38.0577 23.1284 38.0656 23.7935C38.0672 23.9862 38.0736 24.1802 38.0624 24.3715C38.0322 24.9072 37.6461 25.2616 37.1074 25.2574C36.5687 25.2546 36.1937 24.8988 36.1635 24.3616C36.1571 24.2407 36.1619 24.1169 36.1619 23.9946Z" fill="black"/>
<path d="M39.9681 23.9946C39.9681 23.9243 39.9665 23.854 39.9681 23.7837C39.9776 23.1199 40.3272 22.7374 40.9247 22.7402C41.5175 22.7431 41.8639 23.1284 41.8718 23.7935C41.8734 23.9862 41.8798 24.1802 41.8687 24.3715C41.8385 24.9072 41.4523 25.2616 40.9136 25.2574C40.3749 25.2546 39.9999 24.8988 39.9697 24.3616C39.9633 24.2407 39.9697 24.1169 39.9681 23.9946Z" fill="black"/>
</g>
<defs>
<clipPath id="clip0_0_13522">
<rect width="59" height="32" fill="white"/>
</clipPath>
</defs>
</svg>
