<svg width="325" height="180" viewBox="0 0 325 180" fill="none" xmlns="http://www.w3.org/2000/svg">
<g clip-path="url(#clip0_1_694)">
<path d="M30.4285 179.054L29.8584 178.94L38.7687 87.1006L39.3388 87.2144L30.4285 179.054Z" fill="#494949"/>
<path d="M63.6062 179.054L63.0361 178.94L71.9465 87.1006L72.5163 87.2144L63.6062 179.054Z" fill="#494949"/>
<path d="M136.944 179.054L137.514 178.94L128.604 87.1006L128.034 87.2144L136.944 179.054Z" fill="#494949"/>
<path d="M103.767 179.054L104.337 178.94L95.4265 87.1006L94.8564 87.2144L103.767 179.054Z" fill="#494949"/>
<path d="M91.9495 46.682L91.374 46.7617L96.5793 87.1983L97.1547 87.1187L91.9495 46.682Z" fill="#494949"/>
<path d="M32.2034 46.6815L31.6279 46.7612L36.8332 87.1979L37.4086 87.1182L32.2034 46.6815Z" fill="#494949"/>
<path d="M97.105 84.1968H38.6664C37.0897 84.1968 35.8115 85.5225 35.8115 87.1579V87.1582C35.8115 88.7936 37.0897 90.1194 38.6664 90.1194H97.105C98.6817 90.1194 99.9598 88.7936 99.9598 87.1582V87.1579C99.9598 85.5225 98.6817 84.1968 97.105 84.1968Z" fill="#292A2E"/>
<path opacity="0.8" d="M97.105 84.1968H38.6664C37.0897 84.1968 35.8115 85.5225 35.8115 87.1579V87.1582C35.8115 88.7936 37.0897 90.1194 38.6664 90.1194H97.105C98.6817 90.1194 99.9598 88.7936 99.9598 87.1582V87.1579C99.9598 85.5225 98.6817 84.1968 97.105 84.1968Z" fill="white"/>
<path d="M97.1034 90.4203H38.666C37.8371 90.412 37.0448 90.0647 36.4614 89.4537C35.878 88.8428 35.5508 88.0177 35.5508 87.1579C35.5508 86.298 35.878 85.473 36.4614 84.862C37.0448 84.2511 37.8371 83.9038 38.666 83.8955H97.1034C97.9324 83.9038 98.7247 84.2511 99.308 84.862C99.8914 85.473 100.219 86.298 100.219 87.1579C100.219 88.0177 99.8914 88.8428 99.308 89.4537C98.7247 90.0647 97.9324 90.412 97.1034 90.4203ZM38.666 84.4977C37.9905 84.5051 37.3451 84.7887 36.87 85.2868C36.3949 85.7848 36.1284 86.4572 36.1284 87.1579C36.1284 87.8586 36.3949 88.5309 36.87 89.029C37.3451 89.5271 37.9905 89.8107 38.666 89.8181H97.1034C97.7789 89.8107 98.4243 89.5271 98.8994 89.029C99.3745 88.5309 99.641 87.8586 99.641 87.1579C99.641 86.4572 99.3745 85.7848 98.8994 85.2868C98.4243 84.7887 97.7789 84.5051 97.1034 84.4977H38.666Z" fill="#292A2E"/>
<path d="M129.179 84.1963H70.7406C69.1639 84.1963 67.8857 85.522 67.8857 87.1574V87.1577C67.8857 88.7931 69.1639 90.1189 70.7406 90.1189H129.179C130.756 90.1189 132.034 88.7931 132.034 87.1577V87.1574C132.034 85.522 130.756 84.1963 129.179 84.1963Z" fill="white"/>
<path d="M129.18 90.4199H70.7411C70.3255 90.4241 69.9132 90.3427 69.5281 90.1806C69.143 90.0186 68.7927 89.7789 68.4974 89.4756C68.2021 89.1722 67.9677 88.8112 67.8078 88.4133C67.6478 88.0154 67.5654 87.5886 67.5654 87.1576C67.5654 86.7265 67.6478 86.2997 67.8078 85.9018C67.9677 85.5039 68.2021 85.1429 68.4974 84.8395C68.7927 84.5362 69.143 84.2965 69.5281 84.1345C69.9132 83.9724 70.3255 83.891 70.7411 83.8952H129.18C129.595 83.891 130.008 83.9724 130.393 84.1345C130.778 84.2965 131.128 84.5362 131.423 84.8395C131.719 85.1429 131.953 85.5039 132.113 85.9018C132.273 86.2997 132.355 86.7265 132.355 87.1576C132.355 87.5886 132.273 88.0154 132.113 88.4133C131.953 88.8112 131.719 89.1722 131.423 89.4756C131.128 89.7789 130.778 90.0186 130.393 90.1806C130.008 90.3427 129.595 90.4241 129.18 90.4199ZM70.7411 84.4973C70.402 84.4936 70.0655 84.5596 69.7512 84.6916C69.4369 84.8237 69.1509 85.019 68.9098 85.2664C68.6688 85.5138 68.4774 85.8083 68.3468 86.1329C68.2162 86.4576 68.1489 86.8058 68.1489 87.1576C68.1489 87.5093 68.2162 87.8575 68.3468 88.1822C68.4774 88.5068 68.6688 88.8013 68.9098 89.0487C69.1509 89.2961 69.4369 89.4914 69.7512 89.6235C70.0655 89.7555 70.402 89.8215 70.7411 89.8178H129.18C129.519 89.8215 129.855 89.7555 130.17 89.6235C130.484 89.4914 130.77 89.2961 131.011 89.0487C131.252 88.8013 131.443 88.5068 131.574 88.1822C131.705 87.8575 131.772 87.5093 131.772 87.1576C131.772 86.8058 131.705 86.4576 131.574 86.1329C131.443 85.8083 131.252 85.5138 131.011 85.2664C130.77 85.019 130.484 84.8237 130.17 84.6916C129.855 84.5596 129.519 84.4936 129.18 84.4973H70.7411Z" fill="#292A2E"/>
<path d="M88.7479 46.7208H32.0722C31.1456 46.7208 30.2507 46.3711 29.5545 45.7369C28.8583 45.1027 28.4083 44.2274 28.2887 43.2744L24.5398 13.413C24.4697 12.8548 24.5152 12.2875 24.6733 11.7491C24.8313 11.2106 25.0983 10.7133 25.4565 10.2903C25.8146 9.86737 26.2556 9.52854 26.75 9.29643C27.2444 9.06433 27.7808 8.94429 28.3235 8.94434H84.999C85.9256 8.94434 86.8205 9.29407 87.5167 9.92827C88.2129 10.5625 88.6628 11.4378 88.7825 12.3908L92.5314 42.2522C92.6014 42.8103 92.5559 43.3776 92.3978 43.916C92.2398 44.4544 91.9728 44.9517 91.6147 45.3746C91.2566 45.7976 90.8157 46.1364 90.3213 46.3686C89.827 46.6007 89.2906 46.7208 88.7479 46.7208Z" fill="#6E3BFF"/>
<path opacity="0.8" d="M88.7479 46.7208H32.0722C31.1456 46.7208 30.2507 46.3711 29.5545 45.7369C28.8583 45.1027 28.4083 44.2274 28.2887 43.2744L24.5398 13.413C24.4697 12.8548 24.5152 12.2875 24.6733 11.7491C24.8313 11.2106 25.0983 10.7133 25.4565 10.2903C25.8146 9.86737 26.2556 9.52854 26.75 9.29643C27.2444 9.06433 27.7808 8.94429 28.3235 8.94434H84.999C85.9256 8.94434 86.8205 9.29407 87.5167 9.92827C88.2129 10.5625 88.6628 11.4378 88.7825 12.3908L92.5314 42.2522C92.6014 42.8103 92.5559 43.3776 92.3978 43.916C92.2398 44.4544 91.9728 44.9517 91.6147 45.3746C91.2566 45.7976 90.8157 46.1364 90.3213 46.3686C89.827 46.6007 89.2906 46.7208 88.7479 46.7208Z" fill="white"/>
<path d="M88.7483 47.0221H32.0725C31.0761 47.0198 30.1144 46.6427 29.3657 45.9608C28.617 45.2789 28.1321 44.3385 28.0011 43.314L24.2522 13.4526C24.1767 12.852 24.2257 12.2416 24.3958 11.6622C24.5659 11.0827 24.8532 10.5476 25.2385 10.0925C25.6239 9.63737 26.0984 9.27275 26.6304 9.02298C27.1624 8.7732 27.7396 8.64402 28.3236 8.64404H84.9993C85.9959 8.64638 86.9578 9.02358 87.7065 9.70566C88.4553 10.3877 88.9401 11.3284 89.071 12.3531L92.82 42.2141C92.8953 42.8148 92.8463 43.4251 92.6761 44.0046C92.506 44.584 92.2186 45.1191 91.8333 45.5742C91.4479 46.0293 90.9734 46.3939 90.4414 46.6437C89.9094 46.8934 89.3322 47.0227 88.7483 47.0227V47.0221ZM28.3236 9.2456C27.8222 9.24561 27.3266 9.35656 26.8698 9.57103C26.4131 9.78551 26.0057 10.0986 25.6749 10.4893C25.344 10.8801 25.0974 11.3396 24.9513 11.8371C24.8053 12.3346 24.7633 12.8587 24.8281 13.3743L28.5767 43.2357C28.6892 44.1154 29.1055 44.9229 29.7483 45.5085C30.3912 46.094 31.217 46.4179 32.0725 46.4199H88.7483C89.2497 46.4199 89.7454 46.309 90.2023 46.0944C90.6591 45.8799 91.0666 45.5668 91.3974 45.1759C91.7283 44.7851 91.975 44.3255 92.121 43.8279C92.267 43.3303 92.3089 42.8061 92.2441 42.2903L88.4951 12.4292C88.3826 11.5496 87.9663 10.7422 87.3235 10.1567C86.6806 9.57124 85.8548 9.24752 84.9993 9.2456H28.3236Z" fill="#292A2E"/>
<path d="M323.825 179.047H0.998965C0.964475 179.047 0.930323 179.04 0.898458 179.027C0.866594 179.013 0.837641 178.993 0.813253 178.967C0.788865 178.942 0.769519 178.912 0.75632 178.879C0.743121 178.846 0.736328 178.811 0.736328 178.775C0.736328 178.739 0.743121 178.704 0.75632 178.671C0.769519 178.638 0.788865 178.608 0.813253 178.582C0.837641 178.557 0.866594 178.537 0.898458 178.523C0.930323 178.509 0.964475 178.502 0.998965 178.502H323.824C323.894 178.502 323.961 178.531 324.01 178.582C324.059 178.633 324.087 178.703 324.087 178.775C324.087 178.847 324.059 178.916 324.01 178.967C323.961 179.019 323.894 179.047 323.824 179.047H323.825Z" fill="#292A2E"/>
<g opacity="0.65">
<path d="M323.825 179.047H0.998965C0.964475 179.047 0.930323 179.04 0.898458 179.027C0.866594 179.013 0.837641 178.993 0.813253 178.967C0.788865 178.942 0.769519 178.912 0.75632 178.879C0.743121 178.846 0.736328 178.811 0.736328 178.775C0.736328 178.739 0.743121 178.704 0.75632 178.671C0.769519 178.638 0.788865 178.608 0.813253 178.582C0.837641 178.557 0.866594 178.537 0.898458 178.523C0.930323 178.509 0.964475 178.502 0.998965 178.502H323.824C323.894 178.502 323.961 178.531 324.01 178.582C324.059 178.633 324.087 178.703 324.087 178.775C324.087 178.847 324.059 178.916 324.01 178.967C323.961 179.019 323.894 179.047 323.824 179.047H323.825Z" fill="#292A2E"/>
</g>
<path d="M117.976 178.569L117.239 178.421L128.756 59.0376L129.493 59.1855L117.976 178.569Z" fill="#494949"/>
<path d="M160.86 178.569L160.123 178.421L171.64 59.0376L172.377 59.1855L160.86 178.569Z" fill="#494949"/>
<path d="M255.652 178.569L256.389 178.421L244.873 59.0376L244.136 59.1855L255.652 178.569Z" fill="#494949"/>
<path d="M212.769 178.569L213.505 178.421L201.989 59.0376L201.252 59.1855L212.769 178.569Z" fill="#494949"/>
<path d="M204.159 55.2622H128.625C126.587 55.2622 124.935 56.9856 124.935 59.1114V59.1118C124.935 61.2377 126.587 62.961 128.625 62.961H204.159C206.197 62.961 207.849 61.2377 207.849 59.1118V59.1114C207.849 56.9856 206.197 55.2622 204.159 55.2622Z" fill="#292A2E"/>
<path opacity="0.8" d="M204.159 55.2622H128.625C126.587 55.2622 124.935 56.9856 124.935 59.1114V59.1118C124.935 61.2377 126.587 62.961 128.625 62.961H204.159C206.197 62.961 207.849 61.2377 207.849 59.1118V59.1114C207.849 56.9856 206.197 55.2622 204.159 55.2622Z" fill="white"/>
<path d="M204.157 63.3527H128.624C127.553 63.3419 126.529 62.8904 125.775 62.0963C125.021 61.3021 124.598 60.2296 124.598 59.1119C124.598 57.9942 125.021 56.9216 125.775 56.1275C126.529 55.3334 127.553 54.8818 128.624 54.8711H204.157C205.228 54.8818 206.253 55.3334 207.007 56.1275C207.761 56.9216 208.184 57.9942 208.184 59.1119C208.184 60.2296 207.761 61.3021 207.007 62.0963C206.253 62.8904 205.228 63.3419 204.157 63.3527ZM128.624 55.6539C127.751 55.6635 126.917 56.0321 126.303 56.6796C125.689 57.3271 125.344 58.2011 125.344 59.1119C125.344 60.0227 125.689 60.8967 126.303 61.5442C126.917 62.1916 127.751 62.5602 128.624 62.5699H204.157C205.03 62.5602 205.864 62.1916 206.478 61.5442C207.093 60.8967 207.437 60.0227 207.437 59.1119C207.437 58.2011 207.093 57.3271 206.478 56.6796C205.864 56.0321 205.03 55.6635 204.157 55.6539H128.624Z" fill="#292A2E"/>
<path d="M245.616 55.2622H170.082C168.044 55.2622 166.392 56.9856 166.392 59.1114V59.1118C166.392 61.2377 168.044 62.961 170.082 62.961H245.616C247.654 62.961 249.306 61.2377 249.306 59.1118V59.1114C249.306 56.9856 247.654 55.2622 245.616 55.2622Z" fill="white"/>
<path d="M245.616 63.3524H170.082C169.545 63.3578 169.012 63.252 168.514 63.0413C168.017 62.8306 167.564 62.5191 167.182 62.1248C166.801 61.7305 166.498 61.2611 166.291 60.7439C166.084 60.2268 165.978 59.672 165.978 59.1116C165.978 58.5512 166.084 57.9964 166.291 57.4792C166.498 56.962 166.801 56.4927 167.182 56.0984C167.564 55.7041 168.017 55.3926 168.514 55.1818C169.012 54.9711 169.545 54.8654 170.082 54.8708H245.616C246.154 54.8654 246.687 54.9711 247.184 55.1818C247.682 55.3926 248.135 55.7041 248.517 56.0984C248.898 56.4927 249.201 56.962 249.408 57.4792C249.615 57.9964 249.721 58.5512 249.721 59.1116C249.721 59.672 249.615 60.2268 249.408 60.7439C249.201 61.2611 248.898 61.7305 248.517 62.1248C248.135 62.5191 247.682 62.8306 247.184 63.0413C246.687 63.252 246.154 63.3578 245.616 63.3524ZM170.082 55.6536C169.644 55.6487 169.209 55.7345 168.803 55.9061C168.396 56.0778 168.027 56.3317 167.715 56.6533C167.404 56.9749 167.156 57.3577 166.987 57.7797C166.819 58.2017 166.732 58.6544 166.732 59.1116C166.732 59.5688 166.819 60.0215 166.987 60.4435C167.156 60.8654 167.404 61.2483 167.715 61.5699C168.027 61.8915 168.396 62.1454 168.803 62.317C169.209 62.4886 169.644 62.5745 170.082 62.5696H245.616C246.055 62.5745 246.49 62.4886 246.896 62.317C247.302 62.1454 247.672 61.8915 247.983 61.5699C248.295 61.2483 248.542 60.8654 248.711 60.4435C248.88 60.0215 248.967 59.5688 248.967 59.1116C248.967 58.6544 248.88 58.2017 248.711 57.7797C248.542 57.3577 248.295 56.9749 247.983 56.6533C247.672 56.3317 247.302 56.0778 246.896 55.9061C246.49 55.7345 246.055 55.6487 245.616 55.6536H170.082Z" fill="#292A2E"/>
<path d="M168.321 49.358L182.775 3.27233C183.029 2.4625 183.523 1.75683 184.188 1.25637C184.852 0.755921 185.652 0.486364 186.473 0.486328H245.361C245.975 0.486291 246.58 0.636988 247.127 0.926082C247.674 1.21518 248.147 1.63446 248.507 2.14963C248.868 2.66481 249.106 3.26125 249.202 3.89015C249.298 4.51905 249.249 5.16257 249.059 5.76804L234.605 51.8537C234.351 52.6635 233.856 53.3692 233.192 53.8697C232.528 54.3701 231.728 54.6397 230.907 54.6397H172.019C171.405 54.6397 170.8 54.489 170.253 54.2C169.706 53.9109 169.233 53.4916 168.872 52.9764C168.511 52.4612 168.273 51.8648 168.178 51.2359C168.082 50.607 168.131 49.9635 168.321 49.358Z" fill="#292A2E"/>
<path opacity="0.2" d="M168.321 49.358L182.775 3.27233C183.029 2.4625 183.523 1.75683 184.188 1.25637C184.852 0.755921 185.652 0.486364 186.473 0.486328H245.361C245.975 0.486291 246.58 0.636988 247.127 0.926082C247.674 1.21518 248.147 1.63446 248.507 2.14963C248.868 2.66481 249.106 3.26125 249.202 3.89015C249.298 4.51905 249.249 5.16257 249.059 5.76804L234.605 51.8537C234.351 52.6635 233.856 53.3692 233.192 53.8697C232.528 54.3701 231.728 54.6397 230.907 54.6397H172.019C171.405 54.6397 170.8 54.489 170.253 54.2C169.706 53.9109 169.233 53.4916 168.872 52.9764C168.511 52.4612 168.273 51.8648 168.178 51.2359C168.082 50.607 168.131 49.9635 168.321 49.358Z" fill="white"/>
<path d="M180.112 50.9028H140.692C139.71 50.9028 138.914 51.7287 138.914 52.7475V52.7949C138.914 53.8137 139.71 54.6396 140.692 54.6396H180.112C181.094 54.6396 181.89 53.8137 181.89 52.7949V52.7475C181.89 51.7287 181.094 50.9028 180.112 50.9028Z" fill="#292A2E"/>
<path opacity="0.2" d="M180.112 50.9028H140.692C139.71 50.9028 138.914 51.7287 138.914 52.7475V52.7949C138.914 53.8137 139.71 54.6396 140.692 54.6396H180.112C181.094 54.6396 181.89 53.8137 181.89 52.7949V52.7475C181.89 51.7287 181.094 50.9028 180.112 50.9028Z" fill="white"/>
<path d="M208.69 36.2172C212.101 36.2172 214.866 33.3492 214.866 29.8113C214.866 26.2733 212.101 23.4053 208.69 23.4053C205.279 23.4053 202.514 26.2733 202.514 29.8113C202.514 33.3492 205.279 36.2172 208.69 36.2172Z" fill="white"/>
<path d="M286.558 128.012C286.458 128.012 286.363 127.971 286.292 127.898C285.764 127.35 284.902 117.29 282.581 87.3388C281.631 75.0829 280.734 63.5073 280.08 56.4725C280.033 55.97 279.845 55.9113 279.784 55.8922C278.888 55.6116 276.162 57.8408 274.641 59.7924C274.578 59.8727 274.488 59.9239 274.389 59.9348C274.29 59.9458 274.19 59.9155 274.113 59.8506C274.036 59.7857 273.986 59.6916 273.976 59.589C273.965 59.4863 273.994 59.3835 274.057 59.3032C275.063 58.0128 278.342 54.6294 279.999 55.1466C280.334 55.2509 280.75 55.5521 280.827 56.3974C281.482 63.4384 282.379 75.0176 283.329 87.2761C284.74 105.477 286.337 126.097 286.862 127.396C286.903 127.454 286.927 127.523 286.932 127.594C286.937 127.666 286.923 127.737 286.892 127.801C286.86 127.864 286.812 127.918 286.753 127.955C286.695 127.993 286.627 128.012 286.558 128.012Z" fill="#494949"/>
<path d="M279.116 69.3808C285.342 64.2045 287.405 56.1475 283.725 51.3852C280.044 46.6228 272.014 46.9584 265.788 52.1347C259.562 57.3111 257.498 65.368 261.179 70.1304C264.859 74.8927 272.89 74.5572 279.116 69.3808Z" fill="#6E3BFF"/>
<path opacity="0.2" d="M279.116 69.3808C285.342 64.2045 287.405 56.1475 283.725 51.3852C280.044 46.6228 272.014 46.9584 265.788 52.1347C259.562 57.3111 257.498 65.368 261.179 70.1304C264.859 74.8927 272.89 74.5572 279.116 69.3808Z" fill="#A7F0B8"/>
<path d="M262.924 71.3424C262.888 71.3423 262.853 71.3318 262.823 71.3119C262.793 71.2921 262.769 71.2638 262.754 71.2303C262.739 71.1968 262.733 71.1595 262.738 71.1229C262.742 71.0862 262.757 71.0516 262.78 71.0232L280.523 48.8297C280.539 48.8096 280.558 48.7928 280.58 48.7805C280.602 48.7681 280.626 48.7604 280.651 48.7578C280.675 48.7552 280.7 48.7578 280.724 48.7653C280.748 48.7729 280.77 48.7853 280.789 48.8018C280.809 48.8183 280.824 48.8386 280.836 48.8615C280.847 48.8844 280.854 48.9095 280.856 48.9353C280.859 48.961 280.856 48.9869 280.848 49.0115C280.84 49.0361 280.828 49.0588 280.812 49.0784L263.068 71.2719C263.051 71.2939 263.029 71.3117 263.004 71.3238C262.979 71.336 262.951 71.3423 262.924 71.3424Z" fill="white"/>
<path d="M290.427 123.255C290.367 123.255 290.308 123.24 290.255 123.211C290.202 123.183 290.156 123.141 290.121 123.091C290.086 123.04 290.064 122.982 290.056 122.92C290.047 122.859 290.053 122.796 290.073 122.737L296.738 102.856C296.934 102.272 297.268 101.748 297.71 101.333C298.152 100.918 298.688 100.624 299.267 100.479C299.847 100.334 300.453 100.342 301.029 100.502C301.605 100.663 302.133 100.971 302.564 101.398L306.087 104.889C306.159 104.961 306.201 105.059 306.203 105.162C306.206 105.265 306.168 105.365 306.099 105.439C306.031 105.514 305.936 105.557 305.837 105.56C305.737 105.562 305.641 105.523 305.569 105.452L302.045 101.961C301.705 101.624 301.288 101.381 300.834 101.254C300.379 101.127 299.901 101.121 299.443 101.236C298.986 101.35 298.563 101.582 298.214 101.91C297.865 102.238 297.601 102.651 297.446 103.112L290.781 122.993C290.756 123.069 290.708 123.136 290.645 123.182C290.581 123.229 290.505 123.254 290.427 123.255Z" fill="#494949"/>
<path d="M315.933 115.896C320.547 112.108 320.272 103.777 315.32 97.2874C310.368 90.7981 302.613 88.6083 297.999 92.3964C293.385 96.1845 293.659 104.516 298.611 111.005C303.564 117.495 311.319 119.685 315.933 115.896Z" fill="#6E3BFF"/>
<path d="M283.53 126.744C283.445 126.744 283.363 126.715 283.297 126.66C283.231 126.606 283.184 126.53 283.165 126.445L271.98 77.9387C271.904 77.6081 271.741 77.3057 271.51 77.0649C271.278 76.824 270.987 76.654 270.669 76.5736C270.35 76.4932 270.016 76.5054 269.704 76.6089C269.392 76.7124 269.113 76.9032 268.899 77.1604L265.451 81.2929C265.419 81.3315 265.38 81.3632 265.336 81.3861C265.292 81.4091 265.244 81.4227 265.194 81.4264C265.145 81.4301 265.096 81.4237 265.049 81.4076C265.002 81.3915 264.959 81.366 264.922 81.3326C264.884 81.2991 264.854 81.2584 264.832 81.2127C264.81 81.167 264.797 81.1172 264.793 81.0662C264.789 81.0152 264.796 80.964 264.811 80.9155C264.827 80.867 264.851 80.8221 264.883 80.7835L268.332 76.6509C268.637 76.286 269.033 76.0154 269.476 75.8687C269.92 75.7221 270.394 75.705 270.846 75.8196C271.298 75.9341 271.712 76.1758 272.04 76.5179C272.369 76.8601 272.6 77.2897 272.709 77.7593L283.893 126.266C283.916 126.366 283.9 126.472 283.848 126.56C283.796 126.648 283.712 126.711 283.615 126.735C283.587 126.741 283.558 126.745 283.53 126.744Z" fill="#494949"/>
<path d="M279.404 92.0684C280.764 83.9132 277.165 76.459 271.367 75.4189C265.569 74.3789 259.766 80.1469 258.406 88.3021C257.047 96.4573 260.645 103.911 266.443 104.952C272.242 105.992 278.044 100.224 279.404 92.0684Z" fill="#6E3BFF"/>
<path d="M286.558 128.012C286.542 128.012 286.527 128.011 286.511 128.009C286.412 127.997 286.323 127.944 286.261 127.863C286.2 127.781 286.172 127.678 286.184 127.576L293.327 67.4277C293.405 66.7722 293.663 66.1539 294.072 65.6472C294.48 65.1406 295.021 64.7671 295.629 64.5718C296.237 64.3764 296.887 64.3676 297.5 64.5462C298.113 64.7249 298.663 65.0834 299.084 65.5788L307.248 75.1689C307.314 75.2463 307.347 75.3477 307.341 75.4507C307.335 75.5538 307.289 75.65 307.215 75.7184C307.14 75.7867 307.042 75.8215 306.943 75.815C306.844 75.8086 306.751 75.7615 306.685 75.6841L298.522 66.0936C298.196 65.7107 297.771 65.4336 297.297 65.2956C296.823 65.1576 296.32 65.1646 295.85 65.3158C295.38 65.467 294.962 65.756 294.647 66.1478C294.331 66.5397 294.131 67.0178 294.072 67.5246L286.928 127.671C286.917 127.765 286.873 127.851 286.805 127.914C286.737 127.977 286.649 128.012 286.558 128.012Z" fill="#494949"/>
<path d="M315.62 80.4979C318.468 75.157 315.117 67.5799 308.135 63.5739C301.152 59.568 293.183 60.6502 290.335 65.9911C287.487 71.332 290.838 78.9091 297.82 82.915C304.802 86.921 312.772 85.8388 315.62 80.4979Z" fill="#6E3BFF"/>
<path opacity="0.2" d="M315.933 115.896C320.547 112.108 320.272 103.777 315.32 97.2874C310.368 90.7981 302.613 88.6083 297.999 92.3964C293.385 96.1845 293.659 104.516 298.611 111.005C303.564 117.495 311.319 119.685 315.933 115.896Z" fill="white"/>
<path opacity="0.5" d="M279.404 92.0684C280.764 83.9132 277.165 76.459 271.367 75.4189C265.569 74.3789 259.766 80.1469 258.406 88.3021C257.047 96.4573 260.645 103.911 266.443 104.952C272.242 105.992 278.044 100.224 279.404 92.0684Z" fill="white"/>
<path opacity="0.5" d="M315.663 80.4979C318.511 75.157 315.16 67.5799 308.178 63.5739C301.195 59.568 293.226 60.6502 290.378 65.9911C287.53 71.332 290.881 78.9091 297.863 82.915C304.845 86.921 312.815 85.8388 315.663 80.4979Z" fill="#A7F0B8"/>
<path d="M295.692 179.047H277.422L274.395 118.415H298.72L295.692 179.047Z" fill="#292A2E"/>
<path opacity="0.3" d="M295.692 179.047H277.422L274.395 118.415H298.72L295.692 179.047Z" fill="white"/>
<path d="M315.933 116.089C315.905 116.089 315.877 116.082 315.851 116.069C315.825 116.057 315.803 116.038 315.785 116.015L297.851 92.5147C297.82 92.4742 297.806 92.4227 297.812 92.3714C297.818 92.3201 297.843 92.2733 297.882 92.2413C297.921 92.2092 297.97 92.1946 298.02 92.2005C298.069 92.2065 298.114 92.2325 298.145 92.273L316.08 115.773C316.102 115.802 316.115 115.836 316.119 115.872C316.123 115.909 316.117 115.945 316.102 115.978C316.086 116.011 316.062 116.039 316.033 116.059C316.003 116.078 315.968 116.088 315.933 116.089Z" fill="white"/>
<path d="M314.427 82.3807C314.387 82.3804 314.348 82.3668 314.317 82.3418L291.367 64.9623C291.347 64.9472 291.33 64.9282 291.317 64.9063C291.305 64.8845 291.296 64.8603 291.292 64.835C291.288 64.8098 291.29 64.784 291.295 64.7591C291.301 64.7343 291.312 64.7109 291.326 64.6902C291.341 64.6696 291.359 64.6521 291.38 64.6388C291.401 64.6255 291.424 64.6166 291.449 64.6127C291.473 64.6087 291.498 64.6098 291.522 64.6159C291.546 64.6219 291.568 64.6327 291.588 64.6478L314.538 82.0289C314.569 82.0533 314.592 82.0873 314.604 82.1261C314.616 82.1649 314.616 82.2065 314.603 82.2452C314.591 82.2838 314.568 82.3176 314.536 82.3416C314.504 82.3656 314.466 82.3788 314.427 82.3792V82.3807Z" fill="white"/>
<path d="M265.511 104.698C265.494 104.698 265.478 104.696 265.462 104.692C265.414 104.678 265.373 104.646 265.348 104.601C265.324 104.556 265.317 104.503 265.33 104.454L272.635 76.063C272.641 76.038 272.652 76.0144 272.667 75.9937C272.682 75.973 272.701 75.9556 272.722 75.9425C272.744 75.9294 272.767 75.9208 272.792 75.9173C272.817 75.9138 272.842 75.9155 272.866 75.9221C272.89 75.9288 272.912 75.9403 272.932 75.9561C272.952 75.9719 272.968 75.9916 272.981 76.0141C272.993 76.0366 273.001 76.0613 273.004 76.087C273.007 76.1126 273.005 76.1386 272.998 76.1634L265.692 104.554C265.682 104.595 265.658 104.632 265.625 104.658C265.592 104.684 265.552 104.698 265.511 104.698Z" fill="white"/>
</g>
<defs>
<clipPath id="clip0_1_694">
<rect width="325" height="180" fill="white"/>
</clipPath>
</defs>
</svg>
