<svg width="27" height="26" viewBox="0 0 27 26" fill="none" xmlns="http://www.w3.org/2000/svg">
<path fill-rule="evenodd" clip-rule="evenodd" d="M26.1337 12.4712C25.9626 5.72207 20.3925 0.303833 13.5361 0.303833C6.76256 0.303833 1.23965 5.59841 0.944632 12.2416C0.938579 12.4241 0.932927 12.6066 0.932927 12.789C0.932927 15.1507 1.59358 17.3533 2.73852 19.2381L0.466797 25.9344L7.44702 23.7198C9.25261 24.7091 11.3294 25.2746 13.5365 25.2746C20.4994 25.2746 26.1398 19.6856 26.1398 12.789C26.1398 12.6831 26.1398 12.5771 26.1337 12.4712ZM13.5361 23.2839C11.3827 23.2839 9.38216 22.6479 7.70652 21.5466L3.63526 22.8424L4.95696 18.9436C3.68853 17.2119 2.93909 15.0863 2.93909 12.7894C2.93909 12.4478 2.95685 12.1063 2.99196 11.7707C3.51136 6.45801 8.0427 2.29454 13.5361 2.29454C19.1002 2.29454 23.6731 6.56435 24.0977 11.9705C24.1215 12.2416 24.1332 12.5123 24.1332 12.789C24.1336 18.5783 19.3779 23.2839 13.5361 23.2839Z" fill="black" fill-opacity="0.5"/>
<path fill-rule="evenodd" clip-rule="evenodd" d="M18.9478 15.3098C18.635 15.1572 17.1184 14.4148 16.8351 14.3145C16.5518 14.2085 16.3452 14.1614 16.1389 14.4675C15.9323 14.7737 15.3366 15.4629 15.1595 15.6631C14.9766 15.8693 14.7999 15.8927 14.4871 15.7396C14.18 15.5866 13.1832 15.2687 12.0031 14.2202C11.0886 13.4134 10.4631 12.4124 10.2859 12.1063C10.1092 11.7997 10.2686 11.635 10.4219 11.4819C10.5632 11.3409 10.7286 11.1226 10.8876 10.9462C10.9292 10.893 10.9643 10.8459 10.9998 10.7987C11.0709 10.6867 11.1237 10.5808 11.1948 10.4334C11.3009 10.2275 11.248 10.0507 11.1714 9.89763C11.0947 9.74457 10.4748 8.23684 10.2153 7.62416C9.96185 7.01188 9.70235 7.11742 9.51913 7.11742C9.34196 7.11742 9.13534 7.08801 8.92911 7.08801C8.72248 7.08801 8.3863 7.16455 8.10299 7.47069C7.81969 7.77723 7.02344 8.51921 7.02344 10.0269C7.02344 10.3802 7.08842 10.7339 7.18285 11.0694C7.49562 12.1469 8.16837 13.0364 8.28622 13.1894C8.43957 13.3896 10.4223 16.5815 13.5609 17.8125C16.7055 19.0318 16.7055 18.625 17.2722 18.5722C17.8384 18.5247 19.1016 17.8359 19.3546 17.1177C19.6145 16.4051 19.6145 15.7924 19.5378 15.6631C19.4607 15.5394 19.2541 15.4629 18.9478 15.3098Z" fill="black" fill-opacity="0.5"/>
</svg>
