<svg width="48" height="35" viewBox="0 0 48 35" fill="none" xmlns="http://www.w3.org/2000/svg">
<path d="M24.0018 7.52539C23.986 7.52539 23.9702 7.52539 23.9554 7.52539C18.9325 7.52539 14.8245 11.8862 14.7874 17.2689C14.7697 19.8582 15.7095 22.3079 17.4333 24.1645C19.171 26.036 21.4811 27.0688 23.9387 27.0727C23.9433 27.0727 23.9498 27.0727 23.9545 27.0727C29.0005 27.0727 33.1123 22.6981 33.1244 17.3134C33.1364 11.9436 29.0441 7.55213 24.0018 7.52539ZM27.4771 20.4127C27.274 21.6227 26.5253 22.5872 25.4741 22.9941C25.2728 23.0724 25.0993 23.1387 25.0668 23.1872C25.0353 23.2338 25.0344 23.415 25.0325 23.6457V23.6556C25.0325 23.7209 25.0325 23.7784 25.0334 23.8289C25.0353 24.0576 25.0371 24.2081 24.924 24.3299C24.8089 24.4537 24.6605 24.4537 24.4156 24.4517C24.3738 24.4517 24.3283 24.4517 24.2773 24.4517C24.23 24.4517 24.1855 24.4517 24.1419 24.4517C23.7661 24.4517 23.5463 24.4359 23.3922 24.2695C23.2197 24.0833 23.2243 23.8031 23.2317 23.3387C23.2345 23.1476 23.2197 23.1258 23.0499 23.0842C22.1036 22.8516 21.328 22.3198 20.7454 21.5029C20.6424 21.3593 20.3706 20.9771 20.7611 20.5721C20.8595 20.4701 20.9448 20.3454 21.0358 20.2137C21.0821 20.1464 21.1276 20.079 21.1758 20.0147C21.3614 19.7641 21.4718 19.6097 21.6666 19.6136C21.8615 19.6146 21.9746 19.7711 22.163 20.0315C22.4728 20.4583 22.8208 20.7623 23.2271 20.9603C23.2169 20.6731 23.2197 20.385 23.2215 20.1058C23.2225 19.982 23.2234 19.8582 23.2234 19.7344C23.2234 19.6225 23.2225 19.5097 23.2206 19.3968C23.2178 19.1373 23.2141 18.869 23.228 18.6026C23.2401 18.3749 23.2039 18.3571 23.075 18.3294C22.9117 18.2947 22.7679 18.2204 22.6296 18.1491C22.5935 18.1303 22.5573 18.1115 22.522 18.0947C21.3521 17.5233 20.7704 16.5371 20.8381 15.2419C20.9068 13.9379 21.5544 12.9754 22.7122 12.4595L22.7642 12.4367C22.9896 12.3367 23.152 12.2644 23.19 12.203C23.228 12.1417 23.2253 11.9505 23.216 11.6891C23.2095 11.5 23.2215 11.2861 23.3626 11.1336C23.5045 10.9802 23.7142 10.9653 23.8812 10.9693L23.9313 10.9703C24.924 10.995 25.0269 11.1109 25.0288 12.212C25.0288 12.3852 25.039 12.3912 25.1717 12.4268C25.9538 12.6368 26.6357 13.12 27.1988 13.8626C27.4354 14.1745 27.4261 14.4656 27.171 14.727C26.9641 14.9399 26.8147 15.1261 26.7015 15.3122C26.6533 15.3915 26.5067 15.6321 26.2701 15.6321H26.2692C26.0326 15.6321 25.8879 15.3974 25.8183 15.2845C25.6022 14.934 25.3442 14.6765 25.0307 14.4973C25.0446 15.0766 25.0446 15.7073 25.0297 16.4757C25.0279 16.5728 25.0307 16.5846 25.1327 16.6213C25.7116 16.8302 26.1467 17.0768 26.5039 17.3986C27.3074 18.1254 27.672 19.2522 27.4771 20.4127Z" fill="#000"/>
<path d="M8.43222 11.8604C7.21594 11.8654 6.38467 10.993 6.38282 9.70971C6.38096 8.43335 7.23078 7.52436 8.42016 7.53129C9.58541 7.53723 10.4436 8.4383 10.4612 9.67208C10.4798 10.9326 9.62345 11.8554 8.43222 11.8604Z" fill="#000"/>
<path d="M38.0494 26.7432C36.8331 26.7482 36.0019 25.8758 36 24.5925C35.9981 23.3162 36.848 22.4072 38.0373 22.4141C39.2026 22.42 40.0608 23.3211 40.0784 24.5549C40.097 25.8154 39.2416 26.7383 38.0494 26.7432Z" fill="#000"/>
<path d="M46.4236 0.0871342C46.126 0.0128721 45.8103 0.00297048 45.541 0.00297048C36.5782 0.000990161 29.1833 0 21.6425 0C15.6293 0 9.52349 0.000990161 2.45276 0.00198032C2.20575 0.00198032 1.9939 0.0168327 1.80435 0.0465376C0.961248 0.180209 0.404612 0.709946 0.103565 1.66446C-0.000214426 1.9922 0.000643262 2.34965 0.000643262 2.7269V2.78433C-0.000214421 12.3216 -0.000214421 21.8578 0.000643262 31.3951C0.000643262 31.6258 0.00750472 31.8277 0.0220853 32.0099C0.0872692 32.8278 0.438061 33.4378 1.09333 33.8764C1.47672 34.1328 1.90127 34.1536 2.41502 34.1536C2.41588 34.1536 2.41759 34.1536 2.41845 34.1536C9.03204 34.1517 13.9071 34.1517 19.9006 34.1517H27.3822C33.6493 34.1517 38.6007 34.1517 45.4209 34.1517H45.4664C45.6594 34.1517 45.8592 34.1517 46.0513 34.1408C46.921 34.0922 47.6501 33.4378 47.9091 32.4723C48 32.1327 48 31.7614 48 31.4347C48 21.8647 48 12.2958 48 2.72591C48 2.55462 47.9991 2.40015 47.9923 2.24767C47.9417 1.19215 47.2958 0.30398 46.4236 0.0871342ZM42.9551 2.84869C43.1018 2.65858 43.3333 2.66551 43.4088 2.66849C43.9226 2.68532 44.4775 2.68532 45.1027 2.66948C45.1756 2.66749 45.3995 2.66155 45.5496 2.84077C45.6988 3.019 45.6868 3.27149 45.6825 3.35467C45.6722 3.57349 45.6748 3.79133 45.6774 4.02204C45.6782 4.12303 45.68 4.22304 45.68 4.32403C45.68 4.42602 45.6791 4.52801 45.6782 4.62999C45.6765 4.86664 45.6748 5.11121 45.6817 5.34885C45.686 5.50629 45.674 5.70531 45.541 5.84492C45.4467 5.94394 45.33 5.96968 45.2262 5.96968C45.1799 5.96968 45.1362 5.96473 45.0976 5.95879C43.9406 5.7766 43.0186 4.73693 42.8548 3.43091C42.8316 3.23783 42.8247 3.01801 42.9551 2.84869ZM2.45104 2.83483C2.58484 2.68235 2.76324 2.66849 2.88675 2.67146C3.14491 2.67839 3.40993 2.67641 3.66552 2.67542C3.77531 2.67443 3.88509 2.67443 3.99487 2.67443C4.09865 2.67443 4.20157 2.67542 4.30535 2.67542C4.5678 2.67641 4.83883 2.67839 5.10471 2.67245C5.16732 2.67047 5.35687 2.6675 5.49239 2.82592C5.61675 2.97147 5.62704 3.1705 5.62361 3.30813C5.6056 4.02699 5.23508 4.78446 4.63384 5.33598C4.14754 5.78155 3.58233 6.02513 3.06343 6.02513C2.94335 6.02513 2.82585 6.01226 2.71264 5.98553C2.31467 5.89245 2.31381 5.50629 2.31381 5.37955C2.31381 5.14785 2.31381 4.91615 2.31381 4.68445C2.31467 4.23195 2.31553 3.76459 2.30953 3.30516C2.30609 3.10515 2.35412 2.94573 2.45104 2.83483ZM5.49582 31.3069C5.36888 31.4663 5.18448 31.4951 5.05754 31.4951C5.01037 31.4951 4.97177 31.4911 4.94604 31.4881C4.73419 31.4673 4.51892 31.4723 4.29163 31.4772C4.18957 31.4792 4.08664 31.4822 3.98458 31.4822H3.98372C3.8808 31.4822 3.77788 31.4812 3.6741 31.4802C3.41251 31.4782 3.14233 31.4762 2.87903 31.4852C2.75724 31.4891 2.57969 31.4772 2.44761 31.3267C2.34984 31.2148 2.30352 31.0584 2.30695 30.8495C2.31553 30.289 2.31296 29.7177 2.31038 29.1652L2.30867 28.8315C2.30695 28.4384 2.46991 28.2216 2.79326 28.1849C4.09265 28.0404 5.37917 29.1593 5.60131 30.6297C5.63219 30.8257 5.65363 31.1089 5.49582 31.3069ZM45.5505 31.3307C45.4355 31.4634 45.2837 31.4852 45.1576 31.4852C45.1491 31.4852 45.1396 31.4852 45.1311 31.4852C44.872 31.4792 44.6061 31.4812 44.3497 31.4822C44.2408 31.4822 44.1319 31.4832 44.0229 31.4832H43.8059C43.4929 31.4832 43.1807 31.4832 42.8676 31.4832C42.8668 31.4832 42.8659 31.4832 42.8651 31.4832C42.546 31.4832 42.3805 31.3059 42.371 30.9574C42.3522 30.2445 42.7098 29.4692 43.3265 28.885C43.9534 28.2909 44.6953 28.0334 45.3112 28.1968C45.6774 28.2939 45.6782 28.6503 45.6782 28.7682C45.6782 28.9929 45.6782 29.2167 45.6774 29.4415C45.6765 29.9167 45.6748 30.4079 45.6825 30.8891C45.686 31.0792 45.6422 31.2247 45.5505 31.3307ZM45.6877 24.6481C45.6885 25.1006 45.6002 25.5204 44.9501 25.5313C42.3848 25.5779 40.2903 27.8126 40.0767 30.7306C40.0278 31.397 39.683 31.4901 39.3168 31.4901C39.316 31.4901 39.3142 31.4901 39.3134 31.4901C34.5078 31.4832 31.457 31.4832 27.2355 31.4832H8.87251C8.11775 31.4832 8.01054 31.3743 7.92306 30.5138C7.63916 27.7295 5.57129 25.5887 3.11232 25.5343C2.52652 25.5214 2.29838 25.2511 2.30095 24.5709C2.31639 19.622 2.31639 14.5772 2.30095 9.57486C2.29923 8.91244 2.51194 8.65797 3.08744 8.63817C5.69308 8.54707 7.73094 6.32119 7.93335 3.34378C7.97452 2.74176 8.3073 2.67047 8.58862 2.6675C9.69246 2.67443 10.8152 2.67344 11.901 2.67245L24.237 2.67344H27.4353C31.7538 2.67443 34.874 2.67443 39.7577 2.6665C39.7585 2.6665 39.7602 2.6665 39.7611 2.6665C40.208 2.6665 40.4944 2.80315 40.5433 3.47943C40.7397 6.16871 42.582 8.31934 44.9226 8.59361C45.5633 8.66886 45.6911 9.03522 45.6894 9.6016C45.6757 14.2781 45.6748 19.2002 45.6877 24.6481Z" fill="#000"/>
<path d="M25.5072 19.8127C25.4952 19.4889 25.3319 19.2929 25.0341 19.0859C25.035 19.286 25.0341 19.485 25.0341 19.685V19.9425C25.0341 20.0395 25.035 20.1365 25.0359 20.2336C25.0378 20.4316 25.0406 20.6366 25.0322 20.8415C25.3736 20.6138 25.5249 20.286 25.5072 19.8127Z" fill="#F5F9FC"/>
<path d="M23.1426 15.204V14.9763C23.1426 14.8178 23.1417 14.6604 23.1426 14.502C22.9274 14.6604 22.7557 14.9822 22.7511 15.2694C22.7464 15.5466 22.8875 15.7803 23.1426 15.9239C23.1407 15.7664 23.1417 15.61 23.1417 15.4575C23.1426 15.3733 23.1426 15.2882 23.1426 15.204Z" fill="#F5F9FC"/>
</svg>
