<svg width="49" height="35" viewBox="0 0 49 35" fill="none" xmlns="http://www.w3.org/2000/svg">
<path d="M24.2807 34.1415C17.4017 34.1415 10.5232 34.122 3.64423 34.1536C1.65314 34.1629 -0.00348305 32.5098 5.49964e-06 30.2609C0.0139597 21.4617 0.00611046 12.6626 0.00523832 3.86342C0.00523832 3.57533 0.0314024 3.29096 0.0819863 3.00892C0.390723 1.28269 1.84501 0 3.48812 0C17.3328 0.000465416 31.1776 0.000465416 45.0223 0.000465416C47.0531 0.000465416 48.5876 1.65083 48.5867 3.81362C48.5837 12.6905 48.5841 21.5674 48.5867 30.4438C48.5872 32.4484 47.0165 34.1411 45.1353 34.1415C38.1835 34.1425 31.2321 34.142 24.2807 34.1415ZM24.313 12.6961C24.313 12.6956 24.313 12.6956 24.313 12.6952C17.0939 12.6952 9.87434 12.6952 2.65523 12.6952C2.53923 12.6952 2.4228 12.6989 2.30681 12.6952C2.21523 12.6919 2.17337 12.7282 2.17773 12.8301C2.18253 12.9386 2.17729 13.047 2.17729 13.1555C2.17729 18.8531 2.17729 24.5502 2.17729 30.2479C2.17729 31.2597 2.725 31.8456 3.68086 31.8456C17.4366 31.8466 31.1924 31.8461 44.9482 31.8466C45.1087 31.8466 45.2674 31.8349 45.4226 31.7879C46.0388 31.6008 46.4208 31.0381 46.4208 30.3019C46.4221 24.5349 46.4217 18.7674 46.4217 13.0005C46.4217 12.6979 46.4208 12.6966 46.1452 12.6966C38.8676 12.6961 31.5901 12.6961 24.313 12.6961ZM24.2812 6.63637C31.5727 6.63637 38.8642 6.63544 46.1557 6.64102C46.358 6.64102 46.4304 6.5996 46.4265 6.3655C46.4129 5.52868 46.4208 4.6914 46.4225 3.85411C46.423 3.62699 46.402 3.40405 46.3122 3.19601C46.0283 2.53698 45.5251 2.30195 44.8688 2.30241C31.1571 2.30707 17.4458 2.30567 3.73406 2.30614C3.65426 2.30614 3.57402 2.30521 3.49466 2.31033C2.71017 2.36013 2.17947 2.95725 2.17686 3.79547C2.17468 4.60948 2.17599 5.42303 2.17642 6.23704C2.17686 6.63637 2.17773 6.6373 2.55842 6.6373C9.79977 6.63684 17.0407 6.63683 24.2812 6.63637Z" fill="black"/>
<path d="M37.5267 19.4035C38.7324 19.403 39.9377 19.4016 41.1435 19.4039C42.1307 19.4058 42.8337 20.1542 42.835 21.2046C42.8367 22.9485 42.8376 24.6924 42.8341 26.4364C42.8328 27.1508 42.5607 27.7083 41.9663 28.0653C41.7204 28.2133 41.4505 28.2701 41.1714 28.2701C38.7385 28.272 36.3057 28.2738 33.8729 28.2701C32.9258 28.2687 32.2132 27.5231 32.2076 26.5127C32.198 24.7222 32.1975 22.9318 32.2076 21.1413C32.2132 20.1444 32.9258 19.4086 33.8668 19.4048C35.0869 19.4002 36.3066 19.4035 37.5267 19.4035Z" fill="black"/>
</svg>
