<svg width="11" height="11" viewBox="0 0 11 11" fill="none" xmlns="http://www.w3.org/2000/svg">
<path d="M9.42 5.072L10.148 5.954C9.41067 6.402 8.76667 6.84533 8.216 7.284C7.66533 7.71333 7.17533 8.15667 6.746 8.614C6.326 9.07133 5.92467 9.56133 5.542 10.084H5.458C5.08467 9.56133 4.68333 9.07133 4.254 8.614C3.82467 8.15667 3.33467 7.71333 2.784 7.284C2.24267 6.84533 1.59867 6.402 0.852 5.954L1.58 5.072C2.168 5.45467 2.69533 5.842 3.162 6.234C3.638 6.61667 4.05333 6.99933 4.408 7.382C4.76267 7.76467 5.052 8.138 5.276 8.502C5.5 8.866 5.654 9.216 5.738 9.552H5.262C5.346 9.216 5.5 8.866 5.724 8.502C5.948 8.138 6.23733 7.76467 6.592 7.382C6.94667 6.99933 7.35733 6.61667 7.824 6.234C8.3 5.842 8.832 5.45467 9.42 5.072ZM6.06 0.76V5.73C6.06 6.318 6.046 6.83133 6.018 7.27C5.99 7.70867 5.95733 8.10533 5.92 8.46L5.5 9.3L5.08 8.46C5.04267 8.10533 5.01 7.70867 4.982 7.27C4.954 6.83133 4.94 6.318 4.94 5.73V0.76H6.06Z" fill="black"/>
</svg>
