<svg width="18" height="20" viewBox="0 0 18 20" fill="none" xmlns="http://www.w3.org/2000/svg">
<path fill-rule="evenodd" clip-rule="evenodd" d="M5.3499 5.4999C5.3499 3.85156 6.88718 2.3499 8.9999 2.3499C11.1126 2.3499 12.6499 3.85156 12.6499 5.4999C12.6499 7.14825 11.1126 8.6499 8.9999 8.6499C6.88718 8.6499 5.3499 7.14825 5.3499 5.4999ZM8.9999 0.649902C6.14206 0.649902 3.6499 2.72997 3.6499 5.4999C3.6499 8.26984 6.14206 10.3499 8.9999 10.3499C11.8577 10.3499 14.3499 8.26984 14.3499 5.4999C14.3499 2.72997 11.8577 0.649902 8.9999 0.649902ZM2.3499 15.9999C2.3499 15.4298 2.83852 14.7627 4.17541 14.1959C5.4497 13.6557 7.20534 13.3499 8.9999 13.3499C10.7752 13.3499 12.5297 13.7072 13.8109 14.2766C14.4525 14.5618 14.9354 14.8824 15.2459 15.2018C15.5527 15.5174 15.6499 15.7848 15.6499 15.9999C15.6499 16.0493 15.633 16.178 15.3874 16.382C15.1344 16.5923 14.7112 16.8152 14.0951 17.0148C12.8703 17.4116 11.0918 17.6499 8.9999 17.6499C6.908 17.6499 5.12955 17.4116 3.90469 17.0148C3.28863 16.8152 2.8654 16.5923 2.61236 16.382C2.36682 16.178 2.3499 16.0493 2.3499 15.9999ZM8.9999 11.6499C7.04447 11.6499 5.0501 11.9787 3.51189 12.6308C2.03628 13.2563 0.649902 14.3392 0.649902 15.9999C0.649902 16.7152 1.03477 17.2814 1.52584 17.6895C2.0094 18.0913 2.6576 18.3978 3.38082 18.6321C4.83454 19.103 6.80609 19.3499 8.9999 19.3499C11.1937 19.3499 13.1653 19.103 14.619 18.6321C15.3422 18.3978 15.9904 18.0913 16.474 17.6895C16.965 17.2814 17.3499 16.7152 17.3499 15.9999C17.3499 15.215 16.9783 14.5449 16.4648 14.0168C15.955 13.4924 15.266 13.063 14.5014 12.7232C12.9701 12.0426 10.9746 11.6499 8.9999 11.6499Z" fill="black"/>
</svg>
