<svg width="20" height="20" viewBox="0 0 20 20" fill="none" xmlns="http://www.w3.org/2000/svg">
<path fill-rule="evenodd" clip-rule="evenodd" d="M1.8499 9.9999C1.8499 5.49878 5.49878 1.8499 9.9999 1.8499C14.501 1.8499 18.1499 5.49878 18.1499 9.9999C18.1499 14.501 14.501 18.1499 9.9999 18.1499C5.49878 18.1499 1.8499 14.501 1.8499 9.9999ZM9.9999 0.149902C4.5599 0.149902 0.149902 4.5599 0.149902 9.9999C0.149902 15.4399 4.5599 19.8499 9.9999 19.8499C15.4399 19.8499 19.8499 15.4399 19.8499 9.9999C19.8499 4.5599 15.4399 0.149902 9.9999 0.149902ZM9.1499 9.99991C9.1499 10.4694 9.53046 10.8499 9.9999 10.8499C10.4693 10.8499 10.8499 10.4694 10.8499 9.99991V5.99991C10.8499 5.53047 10.4693 5.14991 9.9999 5.14991C9.53046 5.14991 9.1499 5.53047 9.1499 5.99991V9.99991ZM9.99991 12.3499C9.36479 12.3499 8.84991 12.8648 8.84991 13.4999C8.84991 14.135 9.36479 14.6499 9.99991 14.6499C10.635 14.6499 11.1499 14.135 11.1499 13.4999C11.1499 12.8648 10.635 12.3499 9.99991 12.3499Z" fill="black"/>
</svg>
