<svg width="21" height="19" viewBox="0 0 21 19" fill="none" xmlns="http://www.w3.org/2000/svg">
<path d="M17.25 18.8297H3.83333C3.57917 18.8297 3.33541 18.7287 3.15569 18.549C2.97597 18.3693 2.875 18.1255 2.875 17.8713V9.24634H1.29332C0.836303 9.24634 0.61882 8.68379 0.956989 8.37637L9.89671 0.249509C10.0731 0.0889671 10.3031 0 10.5417 0C10.7802 0 11.0102 0.0889671 11.1866 0.249509L20.1263 8.37637C20.4645 8.68379 20.247 9.24634 19.79 9.24634H18.2083V17.8713C18.2083 18.1255 18.1074 18.3693 17.9276 18.549C17.7479 18.7287 17.5042 18.8297 17.25 18.8297ZM4.79167 16.913H16.2917V7.48013L10.5417 2.25338L4.79167 7.48013V16.913Z" fill="black"/>
</svg>
