<svg width="18" height="19" viewBox="0 0 18 19" fill="none" xmlns="http://www.w3.org/2000/svg">
<path fill-rule="evenodd" clip-rule="evenodd" d="M5.89269 3.29011C5.95935 2.82468 6.10158 2.56798 6.30307 2.39527C6.63839 2.10786 7.36285 1.8499 8.9999 1.8499C10.637 1.8499 11.3614 2.10786 11.6967 2.39527C11.8985 2.56826 12.0409 2.82549 12.1074 3.29231C11.2012 3.18934 10.1685 3.1499 8.9999 3.1499C7.8299 3.1499 6.79765 3.18947 5.89269 3.29011ZM4.15879 3.60308C4.20273 2.67755 4.42661 1.76464 5.19673 1.10453C6.02808 0.391946 7.30362 0.149902 8.9999 0.149902C10.6962 0.149902 11.9717 0.391946 12.8031 1.10453C13.5762 1.7672 13.7988 2.68464 13.8415 3.61385C14.7271 3.86083 15.4775 4.2341 16.0803 4.7976C17.2613 5.90148 17.6877 7.55934 17.8091 9.73884C17.8356 9.82109 17.8499 9.90883 17.8499 9.9999C17.8499 10.1576 17.8468 10.3168 17.8386 10.4765C17.8465 10.7792 17.8499 11.091 17.8499 11.4117C17.8499 13.8465 17.532 15.8445 16.0662 17.154C14.6392 18.4289 12.3373 18.8499 8.9999 18.8499C7.31509 18.8499 5.91591 18.7679 4.77115 18.5395C3.62212 18.3104 2.67013 17.9226 1.93458 17.2675C0.455156 15.9499 0.149902 13.8221 0.149902 10.9999C0.149902 10.7797 0.15176 10.5638 0.155889 10.3521C0.151642 10.2342 0.149902 10.1166 0.149902 9.9999C0.149902 9.93299 0.157635 9.86788 0.172255 9.80542C0.264444 7.57204 0.67174 5.85705 1.93458 4.73234C2.53519 4.19742 3.28011 3.84072 4.15879 3.60308ZM1.8569 10.3409C1.91084 7.91913 2.27958 6.70156 3.06523 6.00184C3.49635 5.61787 4.12768 5.32209 5.10366 5.12743C6.08389 4.93192 7.35139 4.8499 8.9999 4.8499C10.6492 4.8499 11.9141 4.93206 12.8913 5.13288C13.8622 5.3324 14.4891 5.63726 14.9195 6.03952C15.6916 6.76126 16.0645 8.01508 16.1367 10.4589C16.1136 10.8252 16.0585 11.1212 15.9612 11.3694C15.8369 11.6867 15.6281 11.9657 15.2261 12.2151C14.3433 12.7629 12.5691 13.1499 9.00595 13.1499C5.44313 13.1499 3.66513 12.763 2.77886 12.2146C2.37493 11.9647 2.16491 11.685 2.03987 11.3678C1.93186 11.0939 1.87542 10.7616 1.8569 10.3409ZM15.9825 13.7429C15.8013 14.7422 15.4646 15.4118 14.9336 15.8862C14.0273 16.6959 12.3292 17.1499 8.9999 17.1499C7.35139 17.1499 6.08389 17.0679 5.10366 16.8724C4.12768 16.6777 3.49635 16.3819 3.06523 15.998C2.5476 15.537 2.21095 14.8512 2.02607 13.7443C3.37561 14.5115 5.5683 14.8499 9.00595 14.8499C12.4446 14.8499 14.6356 14.5113 15.9825 13.7429ZM6.1499 10.9999C6.1499 10.5305 6.53046 10.1499 6.9999 10.1499H10.9999C11.4693 10.1499 11.8499 10.5305 11.8499 10.9999C11.8499 11.4693 11.4693 11.8499 10.9999 11.8499L6.9999 11.8499C6.53046 11.8499 6.1499 11.4693 6.1499 10.9999Z" fill="black"/>
</svg>
