<svg width="18" height="19" viewBox="0 0 18 19" fill="none" xmlns="http://www.w3.org/2000/svg">
<path fill-rule="evenodd" clip-rule="evenodd" d="M2.71419 1.8499C2.51304 1.8499 2.30131 1.93721 2.13143 2.12439C1.95907 2.31431 1.8499 2.58809 1.8499 2.88879V16.111C1.8499 16.4117 1.95907 16.6855 2.13143 16.8754C2.30131 17.0626 2.51304 17.1499 2.71419 17.1499H12.1499V8.9999V2.88879C12.1499 2.58809 12.0407 2.31431 11.8684 2.12439C11.6985 1.93721 11.4868 1.8499 11.2856 1.8499H2.71419ZM2.71419 18.8499H12.9999H14.9999C15.7558 18.8499 16.4807 18.5496 17.0152 18.0152C17.5496 17.4807 17.8499 16.7558 17.8499 15.9999V8.9999C17.8499 8.53046 17.4693 8.1499 16.9999 8.1499H13.8499V2.88879C13.8499 2.18757 13.5978 1.50045 13.1272 0.9819C12.6541 0.460605 11.9938 0.149902 11.2856 0.149902H2.71419C2.00603 0.149902 1.34569 0.460605 0.872577 0.9819C0.401956 1.50045 0.149902 2.18757 0.149902 2.88879V16.111C0.149902 16.8122 0.401956 17.4993 0.872577 18.0179C1.34568 18.5392 2.00603 18.8499 2.71419 18.8499ZM13.8499 17.1499V9.8499H16.1499V15.9999C16.1499 16.3049 16.0287 16.5974 15.8131 16.8131C15.5974 17.0287 15.3049 17.1499 14.9999 17.1499H13.8499ZM4.9999 5.1499C4.53046 5.1499 4.1499 5.53046 4.1499 5.9999C4.1499 6.46934 4.53046 6.8499 4.9999 6.8499H8.9999C9.46935 6.8499 9.8499 6.46934 9.8499 5.9999C9.8499 5.53046 9.46935 5.1499 8.9999 5.1499H4.9999ZM4.1499 8.9999C4.1499 8.53046 4.53046 8.1499 4.9999 8.1499H8.9999C9.46935 8.1499 9.8499 8.53046 9.8499 8.9999C9.8499 9.46935 9.46935 9.8499 8.9999 9.8499H4.9999C4.53046 9.8499 4.1499 9.46935 4.1499 8.9999ZM4.9999 12.1499C4.53046 12.1499 4.1499 12.5305 4.1499 12.9999C4.1499 13.4693 4.53046 13.8499 4.9999 13.8499H7.9999C8.46934 13.8499 8.8499 13.4693 8.8499 12.9999C8.8499 12.5305 8.46934 12.1499 7.9999 12.1499H4.9999Z" fill="black"/>
</svg>
