<svg width="22" height="20" viewBox="0 0 22 20" fill="none" xmlns="http://www.w3.org/2000/svg">
<path fill-rule="evenodd" clip-rule="evenodd" d="M10.55 1.8499C15.0805 1.8499 18.7 5.46934 18.7 9.9999C18.7 10.9992 18.5179 11.9913 18.1607 12.8842C18.0777 13.0918 18.0798 13.3237 18.1666 13.5298L19.2698 16.1499H16.15C15.9569 16.1499 15.7697 16.2156 15.619 16.3362C14.2547 17.4276 12.4386 18.1499 10.55 18.1499C6.01939 18.1499 2.39995 14.5305 2.39995 9.9999C2.39995 5.46934 6.01939 1.8499 10.55 1.8499ZM20.4 9.9999C20.4 4.53046 16.0194 0.149902 10.55 0.149902C5.08051 0.149902 0.699951 4.53046 0.699951 9.9999C0.699951 15.4693 5.08051 19.8499 10.55 19.8499C12.7498 19.8499 14.8343 19.0548 16.4405 17.8499H20.2487C20.9997 17.8499 21.5079 17.0845 21.2165 16.3924L19.8647 13.1821C20.2232 12.1681 20.4 11.0811 20.4 9.9999ZM6.54997 9.34991C5.91484 9.34991 5.39997 9.86479 5.39997 10.4999C5.39997 11.135 5.91484 11.6499 6.54997 11.6499C7.1851 11.6499 7.69997 11.135 7.69997 10.4999C7.69997 9.86479 7.1851 9.34991 6.54997 9.34991ZM10.55 9.34991C9.91484 9.34991 9.39997 9.86479 9.39997 10.4999C9.39997 11.135 9.91484 11.6499 10.55 11.6499C11.1851 11.6499 11.7 11.135 11.7 10.4999C11.7 9.86479 11.1851 9.34991 10.55 9.34991ZM14.55 9.34991C13.9148 9.34991 13.4 9.86479 13.4 10.4999C13.4 11.135 13.9148 11.6499 14.55 11.6499C15.1851 11.6499 15.7 11.135 15.7 10.4999C15.7 9.86479 15.1851 9.34991 14.55 9.34991Z" fill="black"/>
</svg>
