<svg width="25" height="26" viewBox="0 0 25 26" fill="none" xmlns="http://www.w3.org/2000/svg">
<g clip-path="url(#clip0_518_4528)">
<path d="M12.5003 8.66671C13.6462 8.66671 14.5837 7.69171 14.5837 6.50004C14.5837 5.30837 13.6462 4.33337 12.5003 4.33337C11.3545 4.33337 10.417 5.30837 10.417 6.50004C10.417 7.69171 11.3545 8.66671 12.5003 8.66671ZM12.5003 10.8334C11.3545 10.8334 10.417 11.8084 10.417 13C10.417 14.1917 11.3545 15.1667 12.5003 15.1667C13.6462 15.1667 14.5837 14.1917 14.5837 13C14.5837 11.8084 13.6462 10.8334 12.5003 10.8334ZM12.5003 17.3334C11.3545 17.3334 10.417 18.3084 10.417 19.5C10.417 20.6917 11.3545 21.6667 12.5003 21.6667C13.6462 21.6667 14.5837 20.6917 14.5837 19.5C14.5837 18.3084 13.6462 17.3334 12.5003 17.3334Z" fill="#A8A8A8"/>
</g>
<defs>
<clipPath id="clip0_518_4528">
<rect width="25" height="26" fill="white"/>
</clipPath>
</defs>
</svg>
