<svg width="26" height="26" viewBox="0 0 26 26" fill="none" xmlns="http://www.w3.org/2000/svg">
<path d="M15.376 5.95818H24.3636V1.63636H15.376V5.95818ZM14.5578 0H25.1818C25.3988 0 25.6069 0.0862014 25.7604 0.23964C25.9138 0.393079 26 0.601187 26 0.818182V6.77636C26 6.99336 25.9138 7.20147 25.7604 7.35491C25.6069 7.50835 25.3988 7.59455 25.1818 7.59455H14.5578C14.4504 7.59455 14.344 7.57338 14.2447 7.53227C14.1454 7.49115 14.0553 7.43088 13.9793 7.35491C13.9033 7.27893 13.843 7.18874 13.8019 7.08947C13.7608 6.9902 13.7396 6.88381 13.7396 6.77636V0.818182C13.7396 0.710737 13.7608 0.604344 13.8019 0.505078C13.843 0.405811 13.9033 0.315616 13.9793 0.23964C14.0553 0.163665 14.1454 0.103398 14.2447 0.0622804C14.344 0.0211629 14.4504 0 14.5578 0ZM24.3636 24.3636V10.7495H15.376V24.3636H24.3636ZM13.7396 25.1818V9.93127C13.7396 9.82383 13.7608 9.71744 13.8019 9.61817C13.843 9.5189 13.9033 9.42871 13.9793 9.35273C14.0553 9.27676 14.1454 9.21649 14.2447 9.17537C14.344 9.13426 14.4504 9.11309 14.5578 9.11309H25.1818C25.3988 9.11309 25.6069 9.1993 25.7604 9.35273C25.9138 9.50617 26 9.71428 26 9.93127V25.1818C26 25.3988 25.9138 25.6069 25.7604 25.7604C25.6069 25.9138 25.3988 26 25.1818 26H14.5578C14.4504 26 14.344 25.9788 14.2447 25.9377C14.1454 25.8966 14.0553 25.8363 13.9793 25.7604C13.9033 25.6844 13.843 25.5942 13.8019 25.4949C13.7608 25.3957 13.7396 25.2893 13.7396 25.1818ZM10.624 24.3636V20.0418H1.63636V24.3636H10.624ZM0 25.1818V19.2236C0 19.0066 0.0862014 18.7985 0.23964 18.6451C0.393079 18.4917 0.601187 18.4055 0.818182 18.4055H11.4422C11.5496 18.4055 11.656 18.4266 11.7553 18.4677C11.8546 18.5089 11.9447 18.5691 12.0207 18.6451C12.0967 18.7211 12.157 18.8113 12.1981 18.9105C12.2392 19.0098 12.2604 19.1162 12.2604 19.2236V25.1818C12.2604 25.2893 12.2392 25.3957 12.1981 25.4949C12.157 25.5942 12.0967 25.6844 12.0207 25.7604C11.9447 25.8363 11.8546 25.8966 11.7553 25.9377C11.656 25.9788 11.5496 26 11.4422 26H0.818182C0.601187 26 0.393079 25.9138 0.23964 25.7604C0.0862014 25.6069 0 25.3988 0 25.1818ZM10.624 15.2505V1.63636H1.63636V15.2505H10.624ZM0 16.0687V0.818182C0 0.601187 0.0862014 0.393079 0.23964 0.23964C0.393079 0.0862014 0.601187 0 0.818182 0H11.4422C11.5496 0 11.656 0.0211629 11.7553 0.0622804C11.8546 0.103398 11.9447 0.163665 12.0207 0.23964C12.0967 0.315616 12.157 0.405811 12.1981 0.505078C12.2392 0.604344 12.2604 0.710737 12.2604 0.818182V16.0687C12.2604 16.1762 12.2392 16.2826 12.1981 16.3818C12.157 16.4811 12.0967 16.5713 12.0207 16.6473C11.9447 16.7232 11.8546 16.7835 11.7553 16.8246C11.656 16.8657 11.5496 16.8869 11.4422 16.8869H0.818182C0.601187 16.8869 0.393079 16.8007 0.23964 16.6473C0.0862014 16.4938 0 16.2857 0 16.0687Z" fill="black"/>
</svg>
