<svg width="22" height="20" viewBox="0 0 22 20" fill="none" xmlns="http://www.w3.org/2000/svg">
<path d="M10.91 0.211019C10.8771 0.216974 10.8445 0.225049 10.8126 0.235193C10.6365 0.274653 10.4796 0.373941 10.3685 0.516137C10.2575 0.658334 10.1991 0.834639 10.2035 1.01501V1.79483H3.18516C2.56469 1.79483 1.96965 2.04131 1.53091 2.48004C1.09218 2.91877 0.845703 3.51382 0.845703 4.13428L0.845703 14.2719C0.845703 15.5633 1.89378 16.6114 3.18516 16.6114H10.2035V16.9038L5.96287 19.0241C5.77549 19.1146 5.63173 19.2758 5.56321 19.4723C5.4947 19.6688 5.50704 19.8844 5.59752 20.0718C5.68801 20.2592 5.84922 20.4029 6.0457 20.4715C6.24218 20.54 6.45783 20.5276 6.64521 20.4371L10.2035 18.6584V18.9508C10.2035 19.1576 10.2857 19.356 10.4319 19.5022C10.5782 19.6485 10.7765 19.7306 10.9833 19.7306C11.1902 19.7306 11.3885 19.6485 11.5347 19.5022C11.681 19.356 11.7631 19.1576 11.7631 18.9508V18.6584L15.3215 20.4371C15.5088 20.5276 15.7245 20.54 15.921 20.4715C16.1174 20.4029 16.2787 20.2592 16.3691 20.0718C16.4596 19.8844 16.472 19.6688 16.4035 19.4723C16.3349 19.2758 16.1912 19.1146 16.0038 19.0241L11.7631 16.9038V16.6114H18.7815C20.0729 16.6114 21.121 15.5633 21.121 14.2719V4.13428C21.121 3.51382 20.8745 2.91877 20.4358 2.48004C19.997 2.04131 19.402 1.79483 18.7815 1.79483H11.7631V1.01501C11.7671 0.904119 11.7473 0.793664 11.7052 0.691025C11.663 0.588386 11.5994 0.495927 11.5187 0.419824C11.4379 0.343722 11.3418 0.28573 11.2369 0.249722C11.1319 0.213713 11.0205 0.200519 10.91 0.211019ZM2.40534 4.13428H19.5613V14.2719H2.40534V4.13428ZM17.1244 4.9141C16.9497 4.93288 16.7865 5.01009 16.6612 5.13323L14.1026 7.69259L12.3238 5.91227C12.2387 5.82486 12.1341 5.75866 12.0187 5.71901C11.9033 5.67936 11.7801 5.66736 11.6592 5.68397C11.5383 5.70059 11.423 5.74535 11.3225 5.81466C11.2221 5.88398 11.1393 5.9759 11.0808 6.08305L8.76553 10.1287L7.81493 7.74016C7.76877 7.61683 7.69213 7.5072 7.59216 7.42149C7.49218 7.33578 7.37213 7.27678 7.2432 7.25C7.11427 7.22322 6.98065 7.22952 6.85482 7.26832C6.72898 7.30712 6.61502 7.37716 6.52356 7.4719L4.1841 9.81135C4.03519 9.96016 3.95149 10.162 3.95142 10.3725C3.95135 10.5831 4.0349 10.785 4.18371 10.9339C4.33252 11.0828 4.53439 11.1665 4.74491 11.1666C4.95542 11.1667 5.15735 11.0831 5.30626 10.9343L6.79259 9.44796L7.91397 12.2257C7.9669 12.365 8.05863 12.4862 8.17831 12.575C8.29799 12.6638 8.44061 12.7164 8.58928 12.7267C8.73795 12.7369 8.88645 12.7044 9.01719 12.6329C9.14793 12.5613 9.25545 12.4539 9.327 12.3231L11.9347 7.76589L13.5427 9.37466C13.6154 9.44989 13.7025 9.50971 13.7989 9.55057C13.8952 9.59143 13.9987 9.61249 14.1034 9.61249C14.208 9.61249 14.3116 9.59143 14.4079 9.55057C14.5042 9.50971 14.5913 9.44989 14.6641 9.37466L17.7833 6.25538C17.9065 6.14134 17.9896 5.99059 18.0203 5.82554C18.0509 5.66049 18.0275 5.48996 17.9535 5.33929C17.8795 5.18862 17.7588 5.06586 17.6094 4.98925C17.4601 4.91265 17.2899 4.88629 17.1244 4.9141Z" fill="black"/>
</svg>
