<svg width="19" height="18" viewBox="0 0 19 18" fill="none" xmlns="http://www.w3.org/2000/svg">
<path fill-rule="evenodd" clip-rule="evenodd" d="M3.85039 4.9999C3.85039 3.26021 5.26069 1.8499 7.00039 1.8499C8.74009 1.8499 10.1504 3.26021 10.1504 4.9999C10.1504 6.7396 8.74009 8.1499 7.00039 8.1499C5.26069 8.1499 3.85039 6.7396 3.85039 4.9999ZM7.00039 0.149902C4.32181 0.149902 2.15039 2.32132 2.15039 4.9999C2.15039 7.67848 4.32181 9.8499 7.00039 9.8499C9.67897 9.8499 11.8504 7.67848 11.8504 4.9999C11.8504 2.32132 9.67897 0.149902 7.00039 0.149902ZM1.85039 14.9166C1.85039 14.5136 2.17904 13.9978 3.21876 13.5387C4.20829 13.1017 5.58463 12.8499 7.00039 12.8499C8.3961 12.8499 9.77128 13.143 10.7683 13.6046C11.2672 13.8356 11.6332 14.0911 11.8634 14.3377C12.085 14.5752 12.148 14.7655 12.1503 14.9084C12.1422 14.9299 12.1054 14.998 11.9631 15.1087C11.7446 15.2785 11.3801 15.4615 10.8653 15.6269C9.84495 15.9548 8.43669 16.1499 7.00039 16.1499C5.30189 16.1499 3.90375 15.952 2.96169 15.6315C2.48803 15.4703 2.18145 15.2954 2.00808 15.1424C1.84932 15.0023 1.85024 14.9285 1.85038 14.9173L1.85039 14.9166ZM12.1523 14.9009C12.1525 14.901 12.1523 14.9029 12.1509 14.9067C12.1514 14.9028 12.1521 14.9009 12.1523 14.9009ZM7.00039 11.1499C5.41615 11.1499 3.79249 11.4269 2.53202 11.9836C1.32174 12.518 0.150391 13.4606 0.150391 14.9166C0.150391 15.5455 0.467942 16.0506 0.883325 16.4171C1.28808 16.7743 1.82525 17.0405 2.41409 17.2409C3.59703 17.6434 5.19889 17.8499 7.00039 17.8499C8.56409 17.8499 10.1558 17.6406 11.3854 17.2454C11.9957 17.0493 12.5686 16.7912 13.0064 16.4509C13.4408 16.1133 13.8504 15.6033 13.8504 14.9166C13.8504 14.227 13.5365 13.6388 13.1062 13.1777C12.6801 12.7212 12.1085 12.3517 11.4825 12.0619C10.2295 11.4818 8.60468 11.1499 7.00039 11.1499ZM13.1543 8.91837C13.1993 8.45109 13.6146 8.10879 14.0819 8.15382C15.2961 8.27082 16.4226 8.58644 17.2738 9.07868C18.0981 9.55539 18.8504 10.3199 18.8504 11.3732C18.8504 11.9191 18.6414 12.4169 18.2353 12.8125C17.8523 13.1854 17.3295 13.4348 16.7322 13.6042C16.2806 13.7322 15.8107 13.4699 15.6826 13.0182C15.5546 12.5666 15.8169 12.0967 16.2686 11.9686C16.7161 11.8417 16.9433 11.6977 17.0492 11.5946C17.1318 11.5142 17.1504 11.4535 17.1504 11.3732C17.1504 11.2165 17.0332 10.9033 16.4228 10.5503C15.8392 10.2129 14.9657 9.94686 13.9189 9.84598C13.4516 9.80095 13.1093 9.38565 13.1543 8.91837ZM15.0004 0.149902C14.5309 0.149902 14.1504 0.53046 14.1504 0.999902C14.1504 1.46934 14.5309 1.8499 15.0004 1.8499C15.9117 1.8499 16.6504 2.58863 16.6504 3.4999C16.6504 4.41117 15.9117 5.1499 15.0004 5.1499C14.5309 5.1499 14.1504 5.53046 14.1504 5.9999C14.1504 6.46934 14.5309 6.8499 15.0004 6.8499C16.8505 6.8499 18.3504 5.35006 18.3504 3.4999C18.3504 1.64975 16.8505 0.149902 15.0004 0.149902Z" fill="black"/>
</svg>
