<svg width="37" height="37" viewBox="0 0 37 37" fill="none" xmlns="http://www.w3.org/2000/svg">
<path d="M17.0601 28.4348C17.0601 27.6163 17.0738 26.7978 17.0532 25.9793C17.0464 25.6745 17.108 25.5718 17.4437 25.5752C19.0945 25.5957 20.7419 25.5752 22.3928 25.5923C22.701 25.5957 22.7764 25.5033 22.7661 25.2087C22.7455 24.4998 22.7695 23.7875 22.7524 23.0786C22.7455 22.832 22.8106 22.7464 23.0709 22.7498C23.8038 22.767 24.5402 22.7498 25.2732 22.7601C25.4889 22.7635 25.5985 22.7327 25.5917 22.4724C25.5746 21.7156 25.578 20.9553 25.5917 20.1985C25.5951 19.9861 25.5163 19.9382 25.3211 19.9416C24.5642 19.9519 23.8038 19.9382 23.0469 19.9485C22.8312 19.9519 22.7524 19.8937 22.7558 19.6676C22.7695 18.8868 22.7661 18.1026 22.7558 17.3183C22.7524 17.1094 22.8277 17.0546 23.0264 17.0581C23.797 17.0683 24.5676 17.0718 25.3382 17.0581C25.5711 17.0546 25.6191 17.1471 25.6157 17.356C25.6088 18.0889 25.6225 18.8252 25.6088 19.5581C25.6054 19.8115 25.6568 19.9211 25.9445 19.9108C26.6671 19.8902 27.3898 19.8937 28.1125 19.9074C28.3728 19.9142 28.4378 19.8218 28.431 19.5752C28.4173 18.8526 28.4378 18.13 28.4207 17.4074C28.4139 17.1163 28.5098 17.0409 28.7906 17.0478C29.5373 17.0649 30.2839 17.0615 31.0305 17.0512C31.2292 17.0478 31.3045 17.0992 31.3011 17.3115C31.2908 18.0923 31.2908 18.8765 31.3011 19.6608C31.3045 19.8834 31.2395 19.9485 31.0168 19.945C30.2702 19.9313 29.5236 19.9485 28.7769 19.9348C28.5509 19.9313 28.4618 19.9793 28.4687 20.2293C28.4858 20.9622 28.4824 21.6985 28.4687 22.4313C28.4652 22.6779 28.5269 22.7635 28.7872 22.7601C29.5099 22.743 30.2325 22.7635 30.9552 22.7498C31.2086 22.743 31.3114 22.7875 31.308 23.0786C31.2943 24.7635 31.2943 26.4485 31.308 28.1368C31.3114 28.4108 31.2292 28.4827 30.962 28.4759C30.2394 28.4587 29.5167 28.4793 28.794 28.4622C28.5474 28.4553 28.4618 28.5204 28.4687 28.7807C28.4858 29.5033 28.4652 30.2259 28.4789 30.9485C28.4858 31.2019 28.4378 31.3115 28.1501 31.3012C27.4035 31.2807 26.6569 31.2841 25.9102 31.2978C25.6636 31.3012 25.578 31.2396 25.5848 30.9793C25.602 30.2464 25.5814 29.5101 25.5985 28.7772C25.6054 28.517 25.5163 28.4622 25.2732 28.4622C23.6121 28.4724 21.9509 28.4724 20.2864 28.4622C20.0261 28.4587 19.9336 28.5135 19.9405 28.7944C19.961 29.517 19.9336 30.2396 19.9542 30.9622C19.961 31.243 19.872 31.3046 19.6083 31.2978C18.8753 31.2807 18.1389 31.2738 17.406 31.3012C17.1012 31.3115 17.0532 31.195 17.0601 30.9313C17.0669 30.0957 17.0601 29.267 17.0601 28.4348ZM28.4241 25.6163C28.4241 24.7601 28.4173 23.9074 28.4276 23.0512C28.431 22.8389 28.3796 22.7567 28.1501 22.7601C27.3932 22.7738 26.6329 22.7738 25.8725 22.7601C25.6568 22.7567 25.6122 22.8423 25.6122 23.0341C25.6157 24.7327 25.6191 26.4313 25.6122 28.1265C25.6122 28.3731 25.7081 28.4279 25.9308 28.4245C26.6534 28.4142 27.3761 28.4108 28.0988 28.4245C28.3454 28.4279 28.4344 28.3663 28.431 28.106C28.4139 27.2772 28.4241 26.445 28.4241 25.6163Z" fill="black"/>
<path d="M9.97407 5.70911C11.2858 5.70911 12.601 5.71596 13.9128 5.70226C14.1834 5.69883 14.2519 5.77418 14.2519 6.04472C14.2416 8.67144 14.2416 11.2947 14.2519 13.9214C14.2519 14.1646 14.2005 14.2536 13.9368 14.2502C11.2995 14.2399 8.6623 14.2399 6.02165 14.2502C5.76477 14.2502 5.70312 14.1783 5.70312 13.9283C5.7134 11.2913 5.7134 8.65431 5.70312 6.0139C5.70312 5.74678 5.7956 5.70226 6.03535 5.70226C7.34711 5.71253 8.65888 5.70911 9.97407 5.70911ZM8.5801 9.93856C8.5801 10.3358 8.58695 10.7331 8.57668 11.1303C8.57325 11.305 8.61778 11.394 8.81643 11.3906C9.58705 11.3838 10.3577 11.3838 11.1283 11.3906C11.3064 11.3906 11.392 11.3427 11.3886 11.1475C11.3817 10.3769 11.3817 9.60637 11.3886 8.83582C11.3886 8.65774 11.3406 8.57555 11.1454 8.57555C10.3748 8.5824 9.60417 8.5824 8.83355 8.57212C8.61435 8.5687 8.57325 8.66459 8.57668 8.85294C8.58695 9.21253 8.5801 9.57555 8.5801 9.93856Z" fill="black"/>
<path d="M31.2939 10.0069C31.2939 11.3083 31.2871 12.6097 31.3008 13.9076C31.3042 14.1816 31.2289 14.2467 30.9583 14.2467C28.3313 14.2364 25.7078 14.2364 23.0808 14.2467C22.8377 14.2467 22.7486 14.1953 22.752 13.9316C22.7623 11.2946 22.7623 8.65763 22.752 6.01722C22.752 5.76037 22.824 5.69873 23.074 5.69873C25.7112 5.709 28.3485 5.709 30.9857 5.69873C31.2528 5.69873 31.2974 5.7912 31.2939 6.03092C31.2871 7.35969 31.2939 8.68161 31.2939 10.0069ZM28.4204 9.99325C28.4204 9.61996 28.4135 9.24668 28.4238 8.87339C28.4307 8.66791 28.3861 8.57202 28.1498 8.57544C27.3929 8.58914 26.6325 8.58572 25.8722 8.57544C25.6599 8.57202 25.6051 8.65763 25.6085 8.85284C25.6153 9.60969 25.6153 10.37 25.6085 11.1302C25.6051 11.3391 25.6907 11.3974 25.8859 11.3939C26.6428 11.3837 27.4032 11.3837 28.1635 11.3939C28.3793 11.3974 28.4307 11.3083 28.4238 11.1165C28.4135 10.7398 28.4204 10.3665 28.4204 9.99325Z" fill="black"/>
<path d="M14.2442 27.0171C14.2442 28.3288 14.2373 29.6438 14.251 30.9555C14.2545 31.2226 14.1894 31.2979 13.912 31.2979C11.285 31.2877 8.66147 31.2877 6.03452 31.2979C5.75367 31.2979 5.69887 31.2123 5.7023 30.9521C5.71257 28.339 5.71257 25.726 5.7023 23.113C5.7023 22.8356 5.76395 22.75 6.05507 22.75C8.66832 22.7603 11.2816 22.7637 13.8948 22.75C14.1894 22.75 14.251 22.8425 14.2476 23.1164C14.2373 24.4144 14.2442 25.7158 14.2442 27.0171ZM11.3878 27.0445C11.3878 26.6712 11.3775 26.2979 11.3912 25.9247C11.398 25.7021 11.3467 25.5993 11.0932 25.6062C10.3466 25.6233 9.59992 25.6199 8.85327 25.6096C8.62037 25.6062 8.57242 25.6986 8.57585 25.9075C8.58612 26.6541 8.58612 27.4007 8.57585 28.1473C8.57242 28.3767 8.65805 28.4281 8.8704 28.4281C9.61704 28.4178 10.3637 28.4178 11.1103 28.4281C11.3398 28.4315 11.4015 28.3425 11.3912 28.1301C11.3775 27.7671 11.3878 27.4075 11.3878 27.0445Z" fill="black"/>
<path d="M36.993 5.53425C36.993 6.43836 36.9827 7.33904 36.9999 8.24315C37.0067 8.52055 36.9177 8.59247 36.6505 8.58562C35.9039 8.56849 35.1572 8.56849 34.4106 8.58219C34.1708 8.58562 34.1058 8.51712 34.1058 8.2774C34.116 6.60616 34.1023 4.93151 34.116 3.26027C34.1195 2.96233 34.0441 2.88014 33.7427 2.88356C32.0816 2.90069 30.4205 2.88699 28.7594 2.89726C28.4956 2.90069 28.4066 2.83904 28.4134 2.55822C28.434 1.81164 28.4271 1.06507 28.4134 0.318493C28.4134 0.0890411 28.4751 0 28.7217 0C30.5267 0.010274 32.3316 -0.010274 34.1366 0.010274C35.7292 0.0273973 36.9759 1.29795 36.993 2.89726C37.0033 3.7774 36.993 4.65411 36.993 5.53425Z" fill="black"/>
<path d="M0.00695067 5.56515C0.00695067 4.68844 0.000100723 3.8083 0.00695067 2.93159C0.0206506 1.29461 1.27419 0.0206333 2.90448 0.0103593C4.68547 -0.00333929 6.46645 0.013784 8.24744 8.53644e-05C8.53171 -0.00333929 8.58994 0.0959758 8.58309 0.352825C8.56939 1.0857 8.56596 1.822 8.58309 2.55488C8.58994 2.8357 8.49061 2.89392 8.23032 2.8905C6.5692 2.88022 4.90809 2.89392 3.24698 2.8768C2.93873 2.8768 2.87708 2.96926 2.8805 3.26036C2.8942 4.92132 2.8805 6.58228 2.8942 8.24324C2.89763 8.52063 2.812 8.58913 2.54828 8.5857C1.80164 8.56858 1.05499 8.572 0.311773 8.5857C0.0754502 8.58913 0.0035257 8.51378 0.00695067 8.27748C0.0138006 7.36995 0.00695067 6.46584 0.00695067 5.56515Z" fill="black"/>
<path d="M0.00699695 31.4418C0.00699695 30.5514 0.0172719 29.6609 0.000147005 28.7705C-0.00327797 28.5137 0.0515216 28.4075 0.335795 28.4144C1.06874 28.4349 1.80511 28.4383 2.53805 28.4178C2.83603 28.4109 2.89425 28.5171 2.89083 28.7911C2.88055 30.4144 2.9011 32.0411 2.87713 33.6644C2.87028 34.0582 2.997 34.1267 3.35662 34.1233C4.98006 34.1062 6.60692 34.1233 8.23036 34.1062C8.52833 34.1027 8.59341 34.1986 8.58656 34.476C8.56943 35.2089 8.56943 35.9452 8.58656 36.6781C8.59341 36.9349 8.50436 37 8.25434 37C6.47335 36.9897 4.69236 37 2.91138 36.9931C1.30164 36.9863 0.0309718 35.726 0.0104219 34.1164C-0.00327797 33.2226 0.00699695 32.3322 0.00699695 31.4418Z" fill="black"/>
<path d="M36.9937 31.435C36.9937 32.3014 36.9971 33.1679 36.9937 34.0343C36.9868 35.7295 35.7196 36.9898 34.0242 36.9932C32.2912 36.9966 30.5582 36.9864 28.8251 37.0001C28.5203 37.0035 28.4004 36.9418 28.4141 36.6096C28.4415 35.9007 28.4381 35.1884 28.4141 34.4795C28.4039 34.1644 28.5169 34.1062 28.8046 34.1062C30.452 34.1199 32.1028 34.1062 33.7502 34.1199C34.0551 34.1233 34.1236 34.0309 34.1236 33.7364C34.1099 32.0891 34.1236 30.4384 34.1064 28.7911C34.103 28.4829 34.1955 28.4042 34.4935 28.4144C35.2264 28.435 35.9628 28.4281 36.6957 28.4179C36.9355 28.4144 37.004 28.4898 37.0005 28.7295C36.9868 29.6302 36.9937 30.5309 36.9937 31.435Z" fill="black"/>
<path d="M17.0836 17.0585C17.9261 17.0585 18.7687 17.0687 19.6112 17.0516C19.8921 17.0448 19.9503 17.1372 19.9469 17.4009C19.9366 19.0859 19.9366 20.7742 19.9469 22.4592C19.9469 22.6783 19.9126 22.7776 19.6557 22.7742C18.8851 22.7571 18.1145 22.7571 17.3439 22.7742C17.087 22.7811 17.0528 22.6783 17.0562 22.4592C17.0665 21.7263 17.0493 20.99 17.0665 20.2571C17.0733 19.9968 16.9911 19.9352 16.7411 19.942C16.0081 19.9592 15.2718 19.9386 14.5388 19.9523C14.3094 19.9557 14.2272 19.8975 14.2306 19.6544C14.2477 18.8838 14.2443 18.1133 14.2306 17.3427C14.2272 17.1167 14.2991 17.0585 14.5183 17.0619C15.3711 17.0653 16.2273 17.0585 17.0836 17.0585Z" fill="black"/>
<path d="M19.9405 11.3802C19.9405 12.2329 19.9336 13.0891 19.9439 13.9418C19.9473 14.1747 19.8857 14.2535 19.6425 14.2466C18.8719 14.2329 18.1013 14.2329 17.3341 14.2432C17.1115 14.2466 17.0498 14.1747 17.0498 13.9555C17.0567 12.2364 17.0567 10.5172 17.0498 8.79459C17.0498 8.59254 17.108 8.52062 17.3135 8.52404C18.0944 8.53432 18.8787 8.53432 19.6596 8.52404C19.8857 8.52062 19.9439 8.59938 19.9405 8.81514C19.9371 9.6713 19.9439 10.5275 19.9405 11.3802Z" fill="black"/>
<path d="M5.70619 18.4658C5.70619 18.0925 5.71646 17.7192 5.70276 17.3459C5.69591 17.137 5.74386 17.048 5.98018 17.0514C6.7508 17.0651 7.52142 17.0651 8.29204 17.0514C8.51466 17.048 8.58316 17.1233 8.58316 17.3391C8.57289 18.1096 8.57289 18.8801 8.58316 19.6507C8.58659 19.863 8.52152 19.9452 8.29547 19.9418C7.52485 19.9281 6.75423 19.9281 5.98361 19.9418C5.75414 19.9452 5.69591 19.8664 5.70276 19.6507C5.71646 19.2603 5.70619 18.863 5.70619 18.4658Z" fill="black"/>
</svg>
