<svg width="25" height="24" viewBox="0 0 25 24" fill="none" xmlns="http://www.w3.org/2000/svg">
<path d="M12.5 8.25C10.4323 8.25 8.75 9.93225 8.75 12C8.75 14.0677 10.4323 15.75 12.5 15.75C14.5677 15.75 16.25 14.0677 16.25 12C16.25 9.93225 14.5677 8.25 12.5 8.25ZM12.5 14.25C11.2595 14.25 10.25 13.2405 10.25 12C10.25 10.7595 11.2595 9.75 12.5 9.75C13.7405 9.75 14.75 10.7595 14.75 12C14.75 13.2405 13.7405 14.25 12.5 14.25Z" fill="black"/>
<path d="M21.1445 13.527L20.75 13.299C20.2805 13.0283 20 12.5422 20 12C20 11.4578 20.2805 10.9717 20.75 10.701L21.1445 10.473C22.2215 9.85125 22.5897 8.4765 21.968 7.3995L21.218 6.1005C20.5977 5.02575 19.2185 4.65675 18.1445 5.277L17.75 5.50425C17.2805 5.77575 16.7187 5.77575 16.25 5.50425C15.7805 5.23275 15.5 4.7475 15.5 4.20525V3.75C15.5 2.5095 14.4905 1.5 13.25 1.5H11.75C10.5095 1.5 9.49996 2.5095 9.49996 3.75V4.206C9.49996 4.74825 9.21946 5.2335 8.74996 5.505C8.28046 5.77575 7.71946 5.7765 7.24996 5.505L6.85546 5.277C5.78146 4.65675 4.40221 5.02575 3.78121 6.1005L3.03121 7.3995C2.40946 8.4765 2.77771 9.85125 3.85471 10.473L4.24996 10.701C4.71946 10.9717 4.99996 11.4578 4.99996 12C4.99996 12.5422 4.71946 13.0283 4.24996 13.299L3.85546 13.527C2.77846 14.1487 2.41021 15.5235 3.03196 16.6005L3.78196 17.8995C4.40296 18.9742 5.78221 19.3433 6.85546 18.723L7.24996 18.4958C7.71946 18.2235 8.28046 18.225 8.74996 18.4958C9.21946 18.7673 9.49996 19.2525 9.49996 19.7948V20.25C9.49996 21.4905 10.5095 22.5 11.75 22.5H13.25C14.4905 22.5 15.5 21.4905 15.5 20.25V19.794C15.5 19.2518 15.7805 18.7665 16.25 18.495C16.7187 18.2243 17.2805 18.2235 17.75 18.495L18.1445 18.723C19.2185 19.3425 20.5977 18.9735 21.218 17.8995L21.968 16.6005C22.5897 15.5235 22.2215 14.1487 21.1445 13.527ZM20.669 15.8505L19.919 17.1495C19.7112 17.511 19.2485 17.6303 18.8945 17.424L18.5 17.196C17.5602 16.6537 16.439 16.6537 15.5 17.196C14.561 17.7382 14 18.7095 14 19.794V20.25C14 20.6632 13.6632 21 13.25 21H11.75C11.3367 21 11 20.6632 11 20.25V19.794C11 18.7095 10.439 17.7382 9.49996 17.196C8.56096 16.6537 7.43896 16.6537 6.49996 17.196L6.10546 17.424C5.74771 17.6325 5.28796 17.508 5.08096 17.1495L4.33096 15.8505C4.12096 15.4868 4.25146 15.03 4.60546 14.826L4.99996 14.598C5.93896 14.0558 6.49996 13.0845 6.49996 12C6.49996 10.9155 5.93896 9.94425 4.99996 9.402L4.60546 9.174C4.25221 8.97075 4.12096 8.51325 4.33096 8.1495L5.08096 6.8505C5.29171 6.4845 5.75671 6.3735 6.10546 6.576L6.49996 6.804C7.43971 7.34625 8.56096 7.34625 9.49996 6.804C10.439 6.26175 11 5.2905 11 4.206V3.75C11 3.33675 11.3367 3 11.75 3H13.25C13.6632 3 14 3.33675 14 3.75V4.206C14 5.2905 14.561 6.26175 15.5 6.804C16.439 7.34625 17.561 7.34625 18.5 6.804L18.8945 6.576C19.2492 6.37125 19.7097 6.4875 19.919 6.8505L20.669 8.1495C20.879 8.51325 20.7485 8.97 20.3945 9.174L20 9.402C19.061 9.94425 18.5 10.9155 18.5 12C18.5 13.0845 19.061 14.0558 20 14.598L20.3945 14.826C20.7485 15.03 20.879 15.4868 20.669 15.8505Z" fill="black"/>
</svg>
