<svg width="14" height="14" viewBox="0 0 14 14" fill="none" xmlns="http://www.w3.org/2000/svg">
<g clip-path="url(#clip0_1_1532)">
<path d="M10.5 9.37984C10.0567 9.37984 9.66 9.55484 9.35667 9.829L5.1975 7.40817C5.22667 7.274 5.25 7.13984 5.25 6.99984C5.25 6.85984 5.22667 6.72567 5.1975 6.5915L9.31 4.194C9.625 4.48567 10.0392 4.6665 10.5 4.6665C11.4683 4.6665 12.25 3.88484 12.25 2.9165C12.25 1.94817 11.4683 1.1665 10.5 1.1665C9.53167 1.1665 8.75 1.94817 8.75 2.9165C8.75 3.0565 8.77333 3.19067 8.8025 3.32484L4.69 5.72234C4.375 5.43067 3.96083 5.24984 3.5 5.24984C2.53167 5.24984 1.75 6.0315 1.75 6.99984C1.75 7.96817 2.53167 8.74984 3.5 8.74984C3.96083 8.74984 4.375 8.569 4.69 8.27734L8.84333 10.704C8.81417 10.8265 8.79667 10.9548 8.79667 11.0832C8.79667 12.0223 9.56083 12.7865 10.5 12.7865C11.4392 12.7865 12.2033 12.0223 12.2033 11.0832C12.2033 10.144 11.4392 9.37984 10.5 9.37984Z" fill="#161616"/>
</g>
<defs>
<clipPath id="clip0_1_1532">
<rect width="14" height="14" fill="white"/>
</clipPath>
</defs>
</svg>
