<svg width="19" height="20" viewBox="0 0 19 20" fill="none" xmlns="http://www.w3.org/2000/svg">
<path d="M9.42 12.072L10.148 12.954C9.41067 13.402 8.76667 13.8453 8.216 14.284C7.66533 14.7133 7.17533 15.1567 6.746 15.614C6.326 16.0713 5.92467 16.5613 5.542 17.084H5.458C5.08467 16.5613 4.68333 16.0713 4.254 15.614C3.82467 15.1567 3.33467 14.7133 2.784 14.284C2.24267 13.8453 1.59867 13.402 0.852 12.954L1.58 12.072C2.168 12.4547 2.69533 12.842 3.162 13.234C3.638 13.6167 4.05333 13.9993 4.408 14.382C4.76267 14.7647 5.052 15.138 5.276 15.502C5.5 15.866 5.654 16.216 5.738 16.552H5.262C5.346 16.216 5.5 15.866 5.724 15.502C5.948 15.138 6.23733 14.7647 6.592 14.382C6.94667 13.9993 7.35733 13.6167 7.824 13.234C8.3 12.842 8.832 12.4547 9.42 12.072ZM6.06 7.76V12.73C6.06 13.318 6.046 13.8313 6.018 14.27C5.99 14.7087 5.95733 15.1053 5.92 15.46L5.5 16.3L5.08 15.46C5.04267 15.1053 5.01 14.7087 4.982 14.27C4.954 13.8313 4.94 13.318 4.94 12.73V7.76H6.06Z" fill="black"/>
<path d="M9.58 7.928L8.852 7.046C9.58933 6.598 10.2333 6.15467 10.784 5.716C11.3347 5.28667 11.8247 4.84333 12.254 4.386C12.674 3.92867 13.0753 3.43867 13.458 2.916L13.542 2.916C13.9153 3.43867 14.3167 3.92867 14.746 4.386C15.1753 4.84333 15.6653 5.28667 16.216 5.716C16.7573 6.15467 17.4013 6.598 18.148 7.046L17.42 7.928C16.832 7.54533 16.3047 7.158 15.838 6.766C15.362 6.38333 14.9467 6.00067 14.592 5.618C14.2373 5.23533 13.948 4.862 13.724 4.498C13.5 4.134 13.346 3.784 13.262 3.448L13.738 3.448C13.654 3.784 13.5 4.134 13.276 4.498C13.052 4.862 12.7627 5.23533 12.408 5.618C12.0533 6.00067 11.6427 6.38333 11.176 6.766C10.7 7.158 10.168 7.54533 9.58 7.928ZM12.94 12.24L12.94 7.27C12.94 6.682 12.954 6.16867 12.982 5.73C13.01 5.29133 13.0427 4.89467 13.08 4.54L13.5 3.7L13.92 4.54C13.9573 4.89467 13.99 5.29133 14.018 5.73C14.046 6.16867 14.06 6.682 14.06 7.27L14.06 12.24L12.94 12.24Z" fill="black"/>
</svg>
