<svg width="116" height="116" viewBox="0 0 116 116" fill="none" xmlns="http://www.w3.org/2000/svg">
<path fill-rule="evenodd" clip-rule="evenodd" d="M58.1036 0.262696C26.191 0.25684 0.262695 26.1916 0.262695 58.1036C0.262695 90.0157 26.1916 115.945 58.1036 115.945C70.4224 115.945 81.8577 112.072 91.2417 105.5C94.3377 103.411 91.1079 98.7943 88.0839 100.987C79.5875 106.937 69.2697 110.436 58.1036 110.436C29.1687 110.436 5.77136 87.0386 5.77136 58.1036C5.77136 29.1687 29.1693 5.76605 58.1036 5.77136C72.1452 5.77393 85.5714 11.4378 95.3974 21.442L91.4999 25.3395C82.7124 16.3733 70.6848 11.2833 58.1036 11.28C51.8959 11.2784 45.9674 12.5004 40.5448 14.696C37.0131 16.0178 39.1534 21.3073 42.6105 19.8012C47.3982 17.8627 52.6183 16.7873 58.1036 16.7887C69.2222 16.7916 79.846 21.2957 87.6051 29.2343L57.1246 59.7148C55.2316 57.8218 50.6312 53.2241 47.3849 49.9778C44.1816 46.7746 38.8957 46.7746 35.6924 49.9778C32.4892 53.1811 32.4892 58.4644 35.6924 61.6676L51.277 77.2414C54.4802 80.4446 59.7555 80.4446 62.9587 77.2414C74.2059 65.9942 85.4522 54.7478 96.6992 43.5008C98.4748 48.1547 99.4159 53.0997 99.4186 58.1063C99.4311 80.9548 80.9539 99.4186 58.1036 99.4186C35.2534 99.4186 16.7887 80.9539 16.7887 58.1036C16.7887 52.6193 17.8655 47.3983 19.8039 42.6105C21.31 39.1534 16.0205 37.0131 14.6987 40.5448C12.5035 45.9669 11.28 51.8967 11.28 58.1036C11.28 83.931 32.2763 104.927 58.1036 104.927C83.931 104.927 104.941 83.9301 104.927 58.1009C104.924 51.6 103.527 45.2013 100.911 39.2887C102.298 37.9021 103.686 36.5169 105.073 35.1303C108.571 42.2642 110.434 50.1126 110.436 58.1036C110.438 69.2696 106.938 79.588 100.987 88.0839C98.7943 91.1079 103.411 94.3377 105.5 91.2417C112.073 81.8584 115.947 70.4236 115.945 58.1036C115.942 48.6359 113.604 39.339 109.182 31.0176C110.653 29.5467 112.126 28.0773 113.596 26.6064C116.8 23.4031 116.8 18.1279 113.596 14.9247C111.995 13.323 109.88 12.5146 107.76 12.5146C105.639 12.5146 103.516 13.323 101.915 14.9247L99.2922 17.5472C88.4371 6.51541 73.6061 0.265542 58.1036 0.262696ZM107.757 17.9829C108.452 17.9829 109.145 18.2604 109.702 18.8168C110.814 19.9294 110.814 21.5989 109.702 22.7116C92.8224 39.5909 75.9459 56.47 59.0666 73.3493C57.9539 74.4619 56.2844 74.4619 55.1718 73.3493L39.5872 57.7755C38.4746 56.6628 38.4746 54.9826 39.5872 53.8699C40.6999 52.7573 42.3774 52.7572 43.4901 53.8699C47.3853 57.7651 55.1718 65.5624 55.1718 65.5624C55.6883 66.0787 56.3888 66.3688 57.1192 66.3688C57.8496 66.3688 58.55 66.0787 59.0666 65.5624L105.81 18.8168C106.366 18.2604 107.062 17.9829 107.757 17.9829ZM97.0973 94.3026C96.7286 94.2966 96.3624 94.3647 96.0205 94.5029C95.6786 94.641 95.3679 94.8464 95.1069 95.1069C94.8508 95.3627 94.6476 95.6665 94.509 96.0008C94.3704 96.3352 94.299 96.6936 94.299 97.0556C94.299 97.4176 94.3704 97.776 94.509 98.1104C94.6476 98.4448 94.8508 98.7486 95.1069 99.0044C95.3627 99.2605 95.6665 99.4636 96.0009 99.6023C96.3352 99.7409 96.6937 99.8122 97.0556 99.8122C97.4176 99.8122 97.776 99.7409 98.1104 99.6023C98.4448 99.4636 98.7486 99.2605 99.0044 99.0044C99.2605 98.7486 99.4637 98.4448 99.6023 98.1104C99.7409 97.776 99.8122 97.4176 99.8122 97.0556C99.8122 96.6936 99.7409 96.3352 99.6023 96.0008C99.4637 95.6665 99.2605 95.3627 99.0044 95.1069C98.4974 94.6011 97.8134 94.3126 97.0973 94.3026Z" fill="#6E3BFF"/>
</svg>
