<svg width="205" height="92" viewBox="0 0 205 92" fill="none" xmlns="http://www.w3.org/2000/svg">
<path d="M67.6659 42.4031H70.039V40.1971C70.039 38.0431 70.5328 36.403 71.5222 35.275C72.5097 34.147 73.8202 33.583 75.4517 33.583C76.3416 33.583 77.1076 33.787 77.7497 34.1913V37.764C77.2296 37.4098 76.6383 37.2327 75.9699 37.2327C74.3872 37.2327 73.5968 38.2587 73.5968 40.3126V42.4031H77.7497V46.0528H73.5968V60.6497H70.0371V46.0528H67.6641V42.4031H67.6659Z" fill="#6E3BFF"/>
<path d="M82.4961 33.8867H86.0557V60.6492H82.4961V33.8867Z" fill="#6E3BFF"/>
<path d="M102.405 42.4033H106.372L94.3226 70.3843L90.4287 70.4016L95.1392 59.391L87.9824 42.4052H91.9495L97.0768 54.8616L102.405 42.4033Z" fill="#6E3BFF"/>
<path d="M121.945 42.4027H125.505V60.6493H121.945V57.989C120.462 59.9659 118.483 60.9534 116.012 60.9534C113.442 60.9534 111.315 60.041 109.635 58.2162C107.952 56.3913 107.113 54.1622 107.113 51.5251C107.113 48.8898 107.952 46.6588 109.635 44.834C111.315 43.0091 113.44 42.0967 116.012 42.0967C118.483 42.0967 120.462 43.0842 121.945 45.0611V42.4027ZM112.323 55.6117C113.423 56.7397 114.753 57.3037 116.309 57.3037C117.865 57.3037 119.195 56.7397 120.295 55.6117C121.395 54.4837 121.945 53.1208 121.945 51.5251C121.945 49.9293 121.395 48.5664 120.295 47.4384C119.195 46.3104 117.865 45.7464 116.309 45.7464C114.753 45.7464 113.423 46.3104 112.323 47.4384C111.223 48.5664 110.673 49.9293 110.673 51.5251C110.673 53.1208 111.223 54.4856 112.323 55.6117Z" fill="#6E3BFF"/>
<path d="M136.961 49.3961C141.286 50.2585 143.449 52.1083 143.449 54.9457C143.449 56.7956 142.831 58.2585 141.594 59.3365C140.359 60.4145 138.603 60.9515 136.33 60.9515C134.599 60.9515 133.024 60.659 131.602 60.0776C130.181 59.4944 129.186 58.9246 128.617 58.3663L130.025 54.7936C130.716 55.504 131.662 56.093 132.862 56.5607C134.06 57.0304 135.179 57.2768 136.217 57.3018C137.329 57.3269 138.22 57.1498 138.887 56.7706C139.553 56.3913 139.887 55.9217 139.887 55.3634C139.887 54.7301 139.602 54.2412 139.035 53.9005C138.466 53.5578 137.589 53.2729 136.403 53.0458C133.634 52.5395 131.743 51.8427 130.729 50.9553C129.715 50.0679 129.209 48.8513 129.209 47.3056C129.209 45.7599 129.869 44.5067 131.193 43.5423C132.515 42.5799 134.265 42.0986 136.439 42.0986C138.639 42.0986 140.789 42.6819 142.89 43.8465L141.665 47.2671C141.196 46.9129 140.46 46.578 139.459 46.2604C138.459 45.9447 137.451 45.7734 136.439 45.7464C135.425 45.7214 134.559 45.8349 133.844 46.089C133.127 46.3431 132.768 46.7608 132.768 47.3441C132.768 47.6482 132.86 47.9081 133.046 48.1237C133.232 48.3393 133.515 48.5164 133.898 48.6569C134.281 48.7955 134.646 48.911 134.993 48.9996C135.338 49.0881 135.797 49.1844 136.365 49.2845C136.638 49.3345 136.837 49.3711 136.961 49.3961Z" fill="#6E3BFF"/>
<path d="M155.685 42.0985C157.934 42.0985 159.646 42.8146 160.82 44.2468C161.993 45.6789 162.581 47.7502 162.581 50.4624V60.6511H159.021V50.4624C159.021 48.9167 158.719 47.7444 158.113 46.9455C157.506 46.1467 156.475 45.7482 155.017 45.7482C153.83 45.7482 152.719 46.1987 151.68 47.0976C150.642 47.9985 150.124 49.1688 150.124 50.6145V60.6511H146.564V33.8867H150.124V44.5317C151.508 42.9089 153.361 42.0985 155.685 42.0985Z" fill="#6E3BFF"/>
<path d="M168.089 44.8552C169.88 43.0188 172.05 42.0986 174.596 42.0986C177.142 42.0986 179.31 43.0168 181.103 44.8552C182.894 46.6935 183.792 48.9168 183.792 51.527C183.792 54.1372 182.896 56.3625 181.103 58.1989C179.31 60.0372 177.142 60.9554 174.596 60.9554C172.05 60.9554 169.882 60.0372 168.089 58.1989C166.296 56.3625 165.4 54.1372 165.4 51.527C165.4 48.9149 166.296 46.6916 168.089 44.8552ZM170.627 55.5925C171.739 56.734 173.062 57.3038 174.594 57.3038C176.126 57.3038 177.45 56.734 178.561 55.5925C179.673 54.4529 180.23 53.0958 180.23 51.5251C180.23 49.9543 179.675 48.5972 178.561 47.4577C177.45 46.3181 176.126 45.7464 174.594 45.7464C173.06 45.7464 171.739 46.3162 170.627 47.4577C169.516 48.5992 168.958 49.9543 168.958 51.5251C168.96 53.0978 169.516 54.4529 170.627 55.5925Z" fill="#6E3BFF"/>
<path d="M196.102 42.0986C198.672 42.0986 200.797 43.0111 202.479 44.8359C204.16 46.6607 205.001 48.8918 205.001 51.527C205.001 54.1642 204.16 56.3933 202.479 58.2181C200.799 60.043 198.672 60.9554 196.102 60.9554C193.629 60.9554 191.652 59.9679 190.169 57.991V70.3838H186.609V42.4028H190.169V45.0631C191.652 43.0861 193.629 42.0986 196.102 42.0986ZM191.819 55.6117C192.919 56.7398 194.249 57.3038 195.805 57.3038C197.362 57.3038 198.691 56.7398 199.791 55.6117C200.891 54.4837 201.441 53.1209 201.441 51.5251C201.441 49.9293 200.891 48.5664 199.791 47.4384C198.691 46.3104 197.362 45.7464 195.805 45.7464C194.249 45.7464 192.919 46.3104 191.819 47.4384C190.719 48.5664 190.169 49.9293 190.169 51.5251C190.169 53.1209 190.719 54.4857 191.819 55.6117Z" fill="#6E3BFF"/>
<path d="M18.3947 75.6605C17.5029 77.0599 4.49219 91.9455 4.49219 91.9455C4.49219 91.9455 12.5577 73.749 13.4495 72.3476C14.3413 70.9463 16.1718 70.5536 17.5367 71.4679C18.9016 72.3823 19.2865 74.2591 18.3947 75.6605Z" fill="#6E3BFF"/>
<path d="M28.9596 85.8354L32.4441 68.7842L31.1468 63.3732C26.2148 66.1951 22.6833 67.5041 22.5087 67.5696L19.0148 68.8535L18.9941 65.0479C18.9941 64.8554 18.9866 61.0132 19.884 55.3019L14.462 55.9063L0 65.096L11.8129 44.9996L23.7628 40.2257C25.6403 35.1304 28.0152 30.4643 30.8314 26.3392C42.6406 9.04548 61.462 1.98864 62.258 1.69604L65.7538 0.412109L65.7726 4.21772C65.7763 5.08395 65.7444 25.6327 53.9353 42.9245C51.1172 47.0516 47.6515 50.9361 43.6225 54.4896L43.3596 67.6042L28.9596 85.8354ZM34.5469 54.9766L37.3462 66.6533L38.1384 65.6504L38.4144 51.9313L39.3381 51.144C43.4028 47.6849 46.8648 43.8793 49.6284 39.835C57.4499 28.3815 59.6521 15.0706 60.2735 8.44298C54.4065 11.3169 42.9391 18.0099 35.1383 29.4306C32.3784 33.473 30.0748 38.1064 28.295 43.2036L27.8913 44.3605L15.3894 49.3538L14.7436 50.451L26.4157 49.1498L25.6797 52.7783C25.0376 55.9467 24.6828 58.7264 24.4894 60.8322C26.3556 59.9237 28.7869 58.6282 31.4735 56.9246L34.5469 54.9766Z" fill="#6E3BFF"/>
</svg>
